<?xml version="1.0" encoding="UTF-8"?><svg xmlns="http://www.w3.org/2000/svg" viewBox="0 0 280.85 365.6"><defs><style>.cls-1{fill:#ad0012;}.cls-2{fill:#fff;}.cls-3{fill:#386735;}.cls-4{fill:#ffe6e9;}.cls-5{fill:#ccefff;}.cls-6,.cls-7,.cls-8,.cls-9,.cls-10,.cls-11,.cls-12,.cls-13,.cls-14,.cls-15,.cls-16{fill:none;}.cls-6,.cls-7,.cls-8,.cls-10,.cls-11,.cls-12,.cls-13,.cls-14,.cls-15,.cls-16{stroke-miterlimit:10;}.cls-6,.cls-9,.cls-11,.cls-16{stroke:#fff;}.cls-7,.cls-8,.cls-9,.cls-10,.cls-11,.cls-14,.cls-16{stroke-linecap:round;}.cls-7,.cls-8,.cls-10,.cls-12,.cls-14{stroke:#000;}.cls-17{fill:#e1deef;}.cls-18{fill:#436bdd;}.cls-19{fill:#3b3ebc;}.cls-20{fill:#f0e2d3;}.cls-8,.cls-13{stroke-width:2px;}.cls-9{stroke-linejoin:round;stroke-width:0px;}.cls-10,.cls-12{stroke-width:5px;}.cls-21{fill:#45a162;}.cls-22{fill:#254524;}.cls-23{fill:#448aff;}.cls-24{fill:#c8c8c8;}.cls-25{fill:#63b75f;}.cls-26{fill:#ad0000;}.cls-27{fill:#62b65e;}.cls-11{opacity:.2;stroke-width:13px;}.cls-28{fill:#dc1200;}.cls-29{fill:#bba95d;}.cls-13,.cls-15{stroke:#dc1200;}.cls-14,.cls-16{stroke-width:3px;}.cls-15{stroke-width:.5px;}.cls-30{fill:#4a8947;}</style></defs><g id="Layer_1"><g><path class="cls-19" d="m276.83,247.29c1.29,5.32,3.49,17.87-2.14,31.42-10.92,26.25-40.9,31.28-42.89,31.59,2.36-1.79,4.75-5.73,3.91-15.47,5.42-2.54,13.62-7.44,20.55-16.39,10.73-13.85,11.61-28.61,11.69-33.64,3.16.98,6.13,1.79,8.88,2.49Z"/><path class="cls-2" d="m235.7,294.82c-1.19.56-2.27,1.01-3.15,1.36-9.59-10.34-19.19-20.66-28.78-30.99-.91-4.13-1.79-8.36-2.63-12.7-.71-3.62-1.39-7.32-2.03-11.09,3.44-1.13,8.94-3.43,14.35-8.18,4.13-3.62,6.78-7.41,8.39-10.18,2.67,1.76,5.47,3.51,8.4,5.22,8.35,4.88,16.45,8.69,23.93,11.68,4.87,1.95,9.48,3.54,13.75,4.86-.08,5.03-.96,19.78-11.69,33.64-6.93,8.95-15.13,13.85-20.55,16.39Z"/><path class="cls-3" d="m254.53,180.46c1.1,4.42,2.33,11.17,1.93,19.38-.35,7-1.66,10.3-2.49,17.65-.6,5.24-.99,12.89.23,22.44-7.49-2.99-15.58-6.8-23.93-11.68-2.93-1.71-5.73-3.46-8.4-5.22-.88-.59-1.75-1.17-2.6-1.76,2.82-1.95,6.32-4.8,9.76-8.78,4.14-4.79,6.67-9.5,8.23-13.01,2.57,1.75,5.04,3.16,7.3,4.31,2.03-2,8.13-8.49,9.64-19,.21-1.5.33-2.95.33-4.34h.01Z"/><path class="cls-25" d="m252.15,167.8c1.26,3.18,2.43,7.52,2.37,12.66,0,1.39-.11,2.84-.33,4.34-1.51,10.51-7.61,17-9.64,19-2.27-1.15-4.73-2.56-7.3-4.31-1.42-.95-2.89-2.01-4.35-3.18-7.94-6.3-13.03-13.21-16.15-18.35,2.51-4.1,4.36-8.16,5.72-11.99l.8.29c8.56-1.94,17.11-3.89,25.66-5.84l.62-.02c.02.77.05,1.51.06,2.24.54.88,1.58,2.66,2.56,5.15h0Z"/><path class="cls-30" d="m254.04,105.6c5.87,27.16,1.48,49.91-1.89,62.19-.98-2.49-2.02-4.27-2.56-5.15-.01-.73-.03-1.48-.06-2.24-.07-2.41-.2-4.96-.41-7.63-.25-3.2-.61-6.58-1.12-10.11-.44-3.17-1.01-6.45-1.71-9.84-2-9.64-4.67-18.03-7.36-25-.05-7.78-1.06-49.22-33.88-78.93,9.5,7.4,39.44,32.65,48.98,76.72Z"/><path class="cls-23" d="m249.53,160.39l-.62.02c-8.54,1.95-17.1,3.9-25.66,5.84l-.8-.29c1.13-3.16,1.91-6.16,2.45-8.89,7.42-1.39,14.85-2.77,22.28-4.16l1.95-.15c.2,2.67.34,5.22.41,7.63Z"/><path class="cls-2" d="m249.13,152.76l-1.95.15c-7.43,1.39-14.86,2.77-22.28,4.16.98-4.95,1.19-9.05,1.24-11.72,6.64-.81,13.28-1.61,19.92-2.41l1.95-.28c.51,3.53.87,6.91,1.12,10.11Z"/><path class="cls-23" d="m248.01,142.65l-1.95.28c-6.64.8-13.28,1.6-19.92,2.41.24-3.16.47-6.32.71-9.48,6.48-1.01,12.96-2.04,19.45-3.06.7,3.39,1.27,6.67,1.71,9.84Z"/><path class="cls-30" d="m246.3,132.81c-6.48,1.01-12.96,2.04-19.45,3.06,2.12-2.13,4.6-5.07,6.78-8.94,4.28-7.63,5.15-14.91,5.31-19.12,2.69,6.98,5.37,15.37,7.36,25Z"/><path class="cls-27" d="m238.94,107.8c-.16,4.2-1.03,11.49-5.31,19.12-2.18,3.87-4.66,6.81-6.78,8.94-.24,3.16-.47,6.32-.71,9.48-.05,2.67-.26,6.78-1.24,11.72-.54,2.74-1.32,5.74-2.45,8.89-1.35,3.83-3.2,7.89-5.72,11.99-.54.89-1.39,2.21-2.55,3.81-1.59,2.19-3.75,4.88-6.57,7.7,4.43-9.74,9.99-25.04,11.61-44.51,1.45-17.44-.77-31.95-3.07-41.83-2.87-5.06-9.64-15.32-22.46-22.83-9.68-5.68-18.81-7.43-24.28-8.04,1,5.57,3.82,25.24-7.76,45.07-8.27,14.16-19.82,21.43-25.34,24.44-4.67-7.98-9.33-16-14-24.06-4.63-8.02-9.24-16.02-13.81-23.99-2.23-5.13-6.56-12.63-14.78-17.46-1.49-.88-2.28-1.3-3.33-1.49-11.53-2.18-25.5,24.9-31.02,38.52-2.73,6.73-6.12,16.9-7.81,30.13h-.01c.29-2.24.61-4.35.95-6.34-.38,1.67-1.57,7.08-1.75,14.29-1.3,16.89-.14,38.73,9.2,61.49,2.56,6.22,5.44,11.85,8.44,16.89-4.76-2.8-15.37-9.38-26.69-20.2-12.87-12.31-26.66-30.1-33.84-54.05-2.37-7.91-8.58-29.56-3.31-56.56.8-4.09,3.8-18.19,12.81-34.41,12.84-23.12,29.82-35.99,34.98-39.72C83.8,2.2,117.34,2.33,128.18,2.54c15.26.27,48.77.88,76.88,26.33,32.82,29.72,33.83,71.16,33.88,78.93Z"/><path class="cls-2" d="m74,318.63c-1.08-3.91-.77-7.23-.7-7.87,32.87,13.39,59.89,13.41,74.45,12.29,18.28-1.43,33.41-5.99,41.73-8.54,18.13-5.56,32.64-12.54,43.07-18.32.88-.35,1.95-.8,3.15-1.36.83,9.74-1.56,13.67-3.91,15.47-3.66,2.78-6.97.17-13.34,3.17-5.87,2.76-5.77,6.27-11.13,8.05-.25.08-.47.15-.7.21-4.02,1.09-5.46-.83-10.81-.6-7.21.33-9.86,4.04-15.3,7.16-2.33,1.35-5.2,2.59-9.15,3.4-6.34,1.3-11.93.77-12.87.67-2.71-.28-4.35-.72-5.57-.96-3.33-.65-6.04-.34-8.52.41-5.41,1.61-9.67,5.2-16.41,4.87-6.52-.32-9.84-4-13.83-6.31-2.34-1.35-4.93-2.23-8.52-1.65-4.33.69-4.45,2.57-9.5,3.26-1.83.25-10.46,1.42-17.02-4.75-2.83-2.65-4.33-5.77-5.11-8.59Z"/><path class="cls-30" d="m237.25,199.49c-1.56,3.51-4.09,8.22-8.23,13.01-3.44,3.98-6.94,6.83-9.76,8.78-2.74-1.87-5.33-3.75-7.78-5.63h0c1.41-3.77,2.85-8.73,3.54-14.67.9-7.9.11-14.58-.82-19.22,1.16-1.6,2.01-2.92,2.55-3.81,3.12,5.14,8.22,12.05,16.15,18.35,1.47,1.17,2.93,2.23,4.35,3.18Z"/><path class="cls-18" d="m203.78,265.2c9.59,10.33,19.19,20.65,28.78,30.99-10.44,5.78-24.95,12.76-43.07,18.32-8.32,2.56-23.45,7.11-41.73,8.54-14.55,1.13-41.58,1.1-74.45-12.29.99-1.94,1.98-3.95,2.98-6,4.55-9.4,9.14-19.95,13.43-31.61,12.64,4.39,35.99,10.59,65.05,7.1,21.58-2.59,38.35-9.57,49.03-15.06Z"/><path class="cls-19" d="m219.26,221.28c.86.59,1.72,1.17,2.6,1.76-1.61,2.77-4.26,6.56-8.39,10.18-5.41,4.76-10.91,7.06-14.35,8.18-.45-2.58-.88-5.21-1.3-7.87-.19-1.23-.38-2.46-.56-3.68l.47-.07c1.98-1,4.59-2.6,7.19-5.08,3.45-3.28,5.44-6.72,6.54-9.04h.01c2.45,1.86,5.04,3.74,7.78,5.61Z"/><path class="cls-20" d="m205.21,120.9c-2.98-.68-6.27-1.21-9.85-1.45-13.6-.95-24.63,2.67-31.29,5.61l.15.33c-4.06,17.86,3.4,33.49,15.04,37.8,5.82,2.16,12.83,1.52,18.15-1.63,10.64-6.31,15.08-23.03,7.79-39.88l.02-.77Zm-98.81,88.85c-.8-.1-1.57-.21-2.31-.35-11.04-2.03-29.01-5.32-41.43-20.31-10.18-12.28-12.16-26.98-11.89-37.71.2-2.8.48-5.46.8-7.96h.01c1.69-13.23,5.08-23.4,7.81-30.13,5.52-13.62,19.49-40.7,31.02-38.52,1.05.19,1.84.61,3.33,1.49,8.22,4.84,12.55,12.33,14.78,17.46,4.57,7.97,9.18,15.97,13.81,23.99,4.67,8.06,9.33,16.08,14,24.06,5.52-3.01,17.07-10.28,25.34-24.44,11.58-19.83,8.76-39.5,7.76-45.07,5.47.61,14.6,2.36,24.28,8.04,12.82,7.51,19.58,17.77,22.46,22.83,2.3,9.89,4.52,24.39,3.07,41.83-1.62,19.47-7.18,34.77-11.61,44.51-3.55,3.58-8.15,7.37-13.9,10.59-4.68,2.62-10.26,4.69-36.72,7.2-1.49.14-3.04.28-4.67.43-2.65.23-5.49.46-8.52.71-19.01,1.52-29.51,2.36-37.42,1.36Zm-30.49-84.11l.25.7c-6.02,15.94-1.04,31.99,9.92,38.49,5.93,3.52,13.83,4.34,20.37,1.58,11.9-5.05,18.97-21.93,13.66-40.22l.07-.54c-7.86-2.58-20.38-5.3-35.06-2.47-3.34.64-6.41,1.5-9.21,2.47Z"/><path class="cls-22" d="m214.19,181.77c.94,4.64,1.72,11.32.82,19.22-.69,5.94-2.13,10.9-3.54,14.66-7.11-5.46-13.01-10.83-17.76-15.59,5.75-3.21,10.35-7,13.9-10.59,2.82-2.82,4.98-5.51,6.57-7.7Z"/><path class="cls-4" d="m211.48,215.64h0s-.01.02-.01.02c-1.09,2.32-3.09,5.76-6.54,9.04-2.6,2.48-5.21,4.08-7.19,5.08l-.47.07c-.82-5.6-1.54-11.07-2.16-16.4-.53-4.57-.98-9.04-1.38-13.4,4.75,4.76,10.64,10.13,17.76,15.59Z"/><path class="cls-5" d="m209.18,335.89c.42,6.83.47,12.23-3.1,15.84-5.78,5.84-18.66,4.54-23.21-1.62-1.17-1.59-1.53-3.16-2.12-5.76-.28-1.29-.5-2.54-.63-3.73,2.48.96,7.72,2.6,14.35,1.71,7.58-1,12.66-4.73,14.71-6.44Z"/><path class="cls-4" d="m209.05,334.08c.05.62.08,1.22.12,1.81-2.05,1.7-7.14,5.43-14.71,6.44-6.63.89-11.87-.76-14.35-1.71-.63-5.14-.14-9.45.41-12.33,5.43-3.12,8.08-6.83,15.3-7.16,5.35-.24,6.79,1.69,10.81.6.98,2.95,2.09,7.18,2.42,12.36Z"/><path class="cls-29" d="m205.19,121.67c7.29,16.85,2.85,33.57-7.79,39.88-5.32,3.16-12.33,3.8-18.15,1.63-11.63-4.31-19.1-19.94-15.04-37.8l-.15-.33c6.66-2.94,17.7-6.56,31.29-5.61,3.58.25,6.88.78,9.85,1.45l-.02.77Zm-35.27,11.68c2.51-.25,4.61-2.48,4.42-4.9-.23-2.76-3.34-4.75-6.09-4.04-2.32.61-4.11,3.06-3.49,5.52.56,2.29,2.95,3.63,5.16,3.42Z"/><path class="cls-19" d="m150.65,266.72c5.68-.57,11.04-1.44,16.04-2.5,14.78-3.12,26.5-7.9,34.46-11.72.83,4.34,1.71,8.58,2.63,12.7-10.68,5.49-27.45,12.47-49.03,15.06-29.05,3.48-52.41-2.72-65.05-7.1,1.36-3.71,2.69-7.53,3.99-11.46,11.72,3.34,29.65,6.92,51.47,5.49,1.86-.12,3.69-.27,5.48-.46Z"/><path class="cls-2" d="m199.12,241.4c.64,3.78,1.32,7.47,2.03,11.09-7.96,3.82-19.68,8.6-34.46,11.72-1.14-5.67-2.13-11.72-2.91-18.14-1.51-12.51-1.88-24.02-1.62-34.27,3.7,3.28,7.41,6.55,11.12,9.83,7.27-2.73,14.55-5.46,21.82-8.18.62,5.33,1.34,10.8,2.16,16.4.18,1.22.37,2.45.56,3.68.42,2.66.85,5.29,1.3,7.87Z"/><path class="cls-2" d="m195.1,213.46c-7.27,2.73-14.55,5.46-21.82,8.18-3.71-3.28-7.42-6.55-11.12-9.83-1.72-1.52-3.44-3.04-5.15-4.55,26.46-2.51,32.04-4.59,36.72-7.2.39,4.36.85,8.84,1.38,13.4Zm-18.89.39c.69-1.18.26-2.77-.98-3.42-1.25-.65-2.78-.05-3.35,1.15-.51,1.07-.17,2.4.8,3.07,1.14.78,2.82.44,3.53-.8Z"/><path class="cls-28" d="m175.22,210.43c1.24.64,1.67,2.23.98,3.42-.71,1.24-2.39,1.58-3.53.8-.97-.67-1.31-2-.8-3.07.56-1.19,2.1-1.8,3.35-1.15Z"/><path class="cls-2" d="m174.33,128.45c.19,2.42-1.91,4.66-4.42,4.9-2.21.21-4.6-1.13-5.16-3.42-.62-2.47,1.17-4.92,3.49-5.52,2.75-.71,5.86,1.27,6.09,4.04Z"/><path class="cls-19" d="m163.78,246.08c.78,6.41,1.77,12.47,2.91,18.14-5.01,1.06-10.36,1.93-16.04,2.5-.2-5.69-.44-11.43-.73-17.24-.46-9.2-1.01-18.24-1.67-27.1.82-.18,1.59-.37,2.29-.55.6-4.72,1.19-9.44,1.8-14.15,1.62-.15,3.18-.29,4.67-.43,1.71,1.51,3.43,3.03,5.15,4.55-.26,10.25.11,21.76,1.62,34.27Z"/><path class="cls-2" d="m152.34,207.68c-.61,4.71-1.21,9.42-1.8,14.15-.7.18-1.47.37-2.29.55-5.32,1.18-13.31,2.2-22.76.69-8.97-1.43-15.85-4.61-20.17-7.03h-.01c.39-2.13.76-4.23,1.09-6.28,7.9.99,18.41.16,37.42-1.36,3.03-.25,5.87-.48,8.52-.71Zm-7.73,9.51c.85-1.48.32-3.45-1.23-4.25-1.56-.81-3.46-.06-4.17,1.44-.62,1.32-.2,2.98,1,3.81,1.41.97,3.51.54,4.4-1Z"/><path class="cls-2" d="m149.91,249.48c.29,5.81.53,11.54.73,17.24-1.79.19-3.62.34-5.48.46-21.82,1.43-39.75-2.15-51.47-5.49.39-1.23.79-2.46,1.18-3.7.92-2.94,1.8-5.84,2.62-8.7,3.42-11.83,5.94-22.99,7.81-33.26h.01c4.32,2.42,11.19,5.6,20.17,7.03,9.45,1.51,17.44.5,22.76-.69.65,8.86,1.21,17.9,1.67,27.1Z"/><path class="cls-28" d="m143.38,212.95c1.54.8,2.07,2.77,1.23,4.25-.89,1.54-2.99,1.97-4.4,1-1.21-.83-1.62-2.49-1-3.81.71-1.5,2.62-2.25,4.17-1.44Z"/><path class="cls-4" d="m144.4,331.8c.34,3.46.53,8.4-.2,14.27h-.01c-2.34,1.41-8.31,4.55-16.49,4.32-7.58-.21-13.02-3.22-15.35-4.7-.38-6.57.8-11.94,1.81-15.33,3.99,2.31,7.32,6,13.83,6.31,6.74.33,11-3.26,16.41-4.87Z"/><path class="cls-5" d="m144.19,346.07h.01c-.06.44-.12.89-.19,1.34-.89,5.99-1.33,8.98-3.45,11.33-5.67,6.25-19.84,5.74-25.33-1.25-2.37-3.01-2.57-6.53-2.89-11.8,2.33,1.48,7.78,4.49,15.35,4.7,8.18.24,14.15-2.91,16.49-4.32Z"/><path class="cls-29" d="m120.11,126.19c5.31,18.3-1.76,35.17-13.66,40.22-6.54,2.76-14.44,1.94-20.37-1.58-10.96-6.49-15.94-22.55-9.92-38.49l-.25-.7c2.8-.97,5.87-1.83,9.21-2.47,14.68-2.83,27.2-.11,35.06,2.47l-.07.54Zm-37.92,11.16c3.15-.68,5.14-4.58,3.91-7.71-.98-2.5-3.79-3.92-6.35-3.13-2.69.85-4.45,3.95-3.66,6.91.76,2.85,3.58,4.48,6.1,3.93Z"/><path class="cls-4" d="m106.4,209.76c-.34,2.05-.7,4.15-1.09,6.28-1.87,10.27-4.4,21.43-7.81,33.26l-.41-.12c-2-3.22-4.17-6.56-6.53-9.98-2.24-3.26-4.5-6.34-6.71-9.24,9.09-7.67,15.76-15.07,20.24-20.54.74.14,1.51.25,2.31.35Z"/><path class="cls-19" d="m97.09,249.17l.41.12c-.81,2.86-1.69,5.76-2.62,8.7-.39,1.24-.79,2.47-1.18,3.7-.32-.09-.61-.17-.91-.26-3.83-4.19-7.77-8.79-11.7-13.82-2.62-3.34-5.04-6.62-7.29-9.82,2.75-1.97,5.58-4.14,8.53-6.56.52-.43,1.03-.86,1.53-1.29,2.21,2.91,4.46,5.99,6.71,9.24,2.36,3.42,4.53,6.75,6.53,9.98Z"/><path class="cls-30" d="m104.09,209.41c-4.48,5.47-11.15,12.87-20.24,20.54-.51.43-1.01.86-1.53,1.29-2.95,2.42-5.78,4.59-8.53,6.56-5.26,3.77-11.78,8.05-22.07,13.58-8.6,4.62-17.15,8.68-24.56,11.99-.69-11.08,1.49-18.88,3.65-24.01,2.19-5.17,5.06-9.27,7.68-17.65,1.49-4.77,2.23-8.83,2.64-11.51l.6-.63c11.33,10.82,21.94,17.41,26.69,20.2-3-5.04-5.88-10.66-8.44-16.89-9.33-22.76-10.5-44.61-9.2-61.49-.27,10.73,1.71,25.43,11.89,37.71,12.42,14.99,30.39,18.28,41.43,20.31Z"/><path class="cls-2" d="m92.78,261.43c.3.09.6.17.91.26-1.3,3.93-2.63,7.76-3.99,11.46-4.28,11.66-8.87,22.21-13.43,31.61l-.29-.14c-5.63-.42-18.36-2.1-31.18-11.04-13.72-9.57-19.72-21.97-21.88-27.16l-.44-1c1.49-.65,3.06-1.34,4.67-2.06,7.42-3.31,15.96-7.37,24.56-11.99,10.29-5.54,16.81-9.82,22.07-13.58,2.25,3.2,4.68,6.48,7.29,9.82,3.93,5.03,7.87,9.63,11.7,13.82Z"/><path class="cls-2" d="m86.1,129.64c1.23,3.13-.77,7.03-3.91,7.71-2.51.54-5.34-1.08-6.1-3.93-.79-2.96.97-6.06,3.66-6.91,2.56-.79,5.37.63,6.35,3.13Z"/><path class="cls-19" d="m75.99,304.63l.29.14c-.99,2.05-1.98,4.06-2.98,6-.07.64-.38,3.96.7,7.87-3.56.02-38.64-.25-55.28-26.5-4.94-7.8-6.89-15.73-7.63-21.94,3.02-1.22,6.91-2.82,11.4-4.76l.44,1c2.16,5.19,8.16,17.59,21.88,27.16,12.82,8.94,25.56,10.62,31.18,11.04Z"/></g><g id="Layer_5"><g><g><path class="cls-2" d="m108.81,285.73c.8.74,1.61,1.48,2.41,2.22"/><path class="cls-2" d="m111.5,289.2c.39,1.05.78,2.11,1.17,3.16"/><path class="cls-2" d="m115.34,288.81c-.99-.23-1.98-.47-2.98-.7"/></g><g><path class="cls-2" d="m201.87,282.79c-.03-1.09-.06-2.18-.09-3.28"/><path class="cls-2" d="m202.48,278.45c.48-1.02.97-2.03,1.45-3.05"/><path class="cls-2" d="m199.53,275.97c.52.87,1.05,1.75,1.57,2.62"/></g><g><path class="cls-2" d="m210.95,290.88c.74.8,1.48,1.61,2.22,2.41"/><path class="cls-2" d="m213.34,294.56c.3,1.08.6,2.17.91,3.25"/><path class="cls-2" d="m217.2,294.49c-.97-.31-1.94-.63-2.91-.94"/></g><g><path class="cls-2" d="m155.29,287.03c-.58.92-1.17,1.85-1.75,2.77"/><path class="cls-2" d="m152.35,290.29c-.97.57-1.94,1.14-2.91,1.72"/><path class="cls-2" d="m153.42,294c.05-1.02.11-2.03.16-3.05"/></g><g><path class="cls-2" d="m183.39,297.09c.14,1.08.29,2.17.43,3.25"/><path class="cls-2" d="m183.24,301.47c-.38,1.06-.75,2.12-1.13,3.18"/><path class="cls-2" d="m186.43,303.63c-.61-.81-1.22-1.63-1.84-2.44"/></g><g><path class="cls-2" d="m200.43,295.43c-.58.92-1.17,1.85-1.75,2.77"/><path class="cls-2" d="m197.5,298.69c-.97.57-1.94,1.14-2.91,1.72"/><path class="cls-2" d="m198.57,302.4c.05-1.02.11-2.03.16-3.05"/></g><g><path class="cls-2" d="m189.3,291.06c.76-.78,1.53-1.56,2.29-2.34"/><path class="cls-2" d="m192.85,288.48c1.07-.36,2.13-.72,3.2-1.07"/><path class="cls-2" d="m192.58,284.63c-.26.98-.53,1.97-.79,2.95"/></g><g><path class="cls-2" d="m113.83,300.37c-.92.59-1.84,1.17-2.76,1.76"/><path class="cls-2" d="m109.78,302.07c-1.12.11-2.24.21-3.36.32"/><path class="cls-2" d="m109.17,305.88c.48-.9.96-1.8,1.44-2.69"/></g><g><path class="cls-2" d="m92.78,290.16c.71-.83,1.41-1.67,2.12-2.5"/><path class="cls-2" d="m96.14,287.33c1.04-.43,2.08-.86,3.12-1.29"/><path class="cls-2" d="m95.6,283.52c-.19,1-.39,2-.58,3"/></g><g><path class="cls-2" d="m137.09,313.09c-.58.92-1.17,1.85-1.75,2.77"/><path class="cls-2" d="m134.16,316.35c-.97.57-1.94,1.14-2.91,1.72"/><path class="cls-2" d="m135.22,320.06c.05-1.02.11-2.03.16-3.05"/></g><g><path class="cls-2" d="m165.94,306.98c-.15,1.08-.29,2.16-.44,3.25"/><path class="cls-2" d="m164.63,311.17c-.64.92-1.28,1.85-1.93,2.77"/><path class="cls-2" d="m167.14,314.09c-.38-.95-.75-1.89-1.13-2.84"/></g><g><path class="cls-2" d="m165.94,301.3c.58-.92,1.16-1.85,1.75-2.77"/><path class="cls-2" d="m168.86,298.03c.97-.57,1.93-1.15,2.9-1.72"/><path class="cls-2" d="m167.79,294.33c-.05,1.02-.1,2.03-.15,3.05"/></g><g><path class="cls-2" d="m183.24,311.41c-.95-.54-1.9-1.08-2.85-1.62"/><path class="cls-2" d="m179.84,308.63c-.62-.94-1.23-1.88-1.85-2.82"/><path class="cls-2" d="m176.19,309.86c1.02,0,2.04.01,3.06.02"/></g><g><path class="cls-2" d="m181.03,287.56c-1.07-.21-2.14-.43-3.21-.64"/><path class="cls-2" d="m176.93,285.99c-.88-.7-1.76-1.4-2.65-2.09"/><path class="cls-2" d="m173.85,288.32c.97-.32,1.94-.63,2.91-.95"/></g><g><path class="cls-2" d="m88.68,302.08c1.08.14,2.17.28,3.25.42"/><path class="cls-2" d="m92.87,303.37c.93.64,1.85,1.28,2.78,1.91"/><path class="cls-2" d="m95.79,300.85c-.95.38-1.89.76-2.84,1.14"/></g><g><path class="cls-2" d="m117.94,309.26c.38,1.02.76,2.05,1.14,3.07"/><path class="cls-2" d="m118.75,313.57c-.13,1.12-.27,2.23-.4,3.35"/><path class="cls-2" d="m122.34,314.98c-.78-.66-1.55-1.32-2.33-1.98"/></g><g><path class="cls-2" d="m103.22,307.31c-.58.92-1.17,1.85-1.75,2.77"/><path class="cls-2" d="m100.29,310.58c-.97.57-1.94,1.14-2.91,1.72"/><path class="cls-2" d="m101.35,314.28c.05-1.02.11-2.03.16-3.05"/></g><g><path class="cls-2" d="m129.92,287.12c.89.63,1.78,1.27,2.67,1.9"/><path class="cls-2" d="m133.01,290.23c.52,1,1.04,2,1.56,2.99"/><path class="cls-2" d="m136.77,289.37c-1.01-.11-2.03-.22-3.04-.32"/></g><g><path class="cls-2" d="m138.62,302.88c.7-.84,1.4-1.67,2.11-2.51"/><path class="cls-2" d="m141.97,300.04c1.04-.44,2.07-.87,3.11-1.31"/><path class="cls-2" d="m141.41,296.23c-.19,1-.38,2-.57,3"/></g><g><path class="cls-2" d="m129.66,305.61c-.4-1.02-.8-2.03-1.21-3.05"/><path class="cls-2" d="m128.76,301.32c.11-1.12.22-2.24.33-3.36"/><path class="cls-2" d="m125.14,300c.79.64,1.58,1.28,2.37,1.93"/></g><g><path class="cls-2" d="m151.17,313.09c-.16-1.08-.32-2.16-.48-3.24"/><path class="cls-2" d="m151.27,308.71c.36-1.07.72-2.13,1.08-3.2"/><path class="cls-2" d="m148.05,306.59c.62.81,1.25,1.61,1.87,2.42"/></g><g><path class="cls-2" d="m248.66,299.97c-.95-.54-1.9-1.08-2.85-1.62"/><path class="cls-2" d="m245.27,297.19c-.62-.94-1.23-1.88-1.85-2.82"/><path class="cls-2" d="m241.62,298.42c1.02,0,2.04.01,3.06.02"/></g><g><path class="cls-2" d="m253.3,289.64c1.03-.37,2.05-.74,3.08-1.11"/><path class="cls-2" d="m257.61,288.86c1.12.14,2.23.29,3.35.43"/><path class="cls-2" d="m259.05,285.28c-.67.77-1.33,1.54-2,2.31"/></g><g><path class="cls-2" d="m266.53,280.11c.62-.9,1.25-1.79,1.87-2.69"/><path class="cls-2" d="m269.6,276.99c.99-.53,1.99-1.06,2.98-1.58"/><path class="cls-2" d="m268.71,273.24c-.1,1.01-.2,2.03-.3,3.04"/></g><g><path class="cls-2" d="m270.6,254.89c.37,1.03.74,2.05,1.11,3.08"/><path class="cls-2" d="m271.38,259.21c-.14,1.12-.28,2.23-.43,3.35"/><path class="cls-2" d="m274.96,260.64c-.77-.67-1.54-1.33-2.31-2"/></g><g><path class="cls-2" d="m157.38,233.72c-.95-.54-1.9-1.08-2.85-1.62"/><path class="cls-2" d="m153.99,230.94c-.62-.94-1.23-1.88-1.85-2.82"/><path class="cls-2" d="m150.34,232.17c1.02,0,2.04.01,3.06.02"/></g><g><path class="cls-2" d="m163.69,243.29c-.7.84-1.39,1.68-2.09,2.52"/><path class="cls-2" d="m160.36,246.15c-1.03.44-2.07.89-3.1,1.33"/><path class="cls-2" d="m160.95,249.96c.18-1,.36-2,.55-3.01"/></g><g><path class="cls-2" d="m154.58,264.36c.76-.79,1.51-1.58,2.27-2.36"/><path class="cls-2" d="m158.1,261.75c1.06-.37,2.13-.73,3.19-1.1"/><path class="cls-2" d="m157.8,257.9c-.26.99-.51,1.97-.77,2.96"/></g><g><path class="cls-2" d="m151.78,221.91c.92-.59,1.84-1.18,2.75-1.78"/><path class="cls-2" d="m155.81,220.19c1.12-.11,2.24-.22,3.36-.34"/><path class="cls-2" d="m156.41,216.38c-.48.9-.95,1.8-1.43,2.7"/></g><g><path class="cls-2" d="m211.65,232.75c-.95-.54-1.9-1.08-2.85-1.62"/><path class="cls-2" d="m208.25,229.97c-.62-.94-1.23-1.88-1.85-2.82"/><path class="cls-2" d="m204.6,231.2c1.02,0,2.04.01,3.06.02"/></g><g><path class="cls-2" d="m92.73,256.32c-.4-1.02-.8-2.03-1.2-3.05"/><path class="cls-2" d="m91.83,252.03c.11-1.12.22-2.24.33-3.36"/><path class="cls-2" d="m88.21,250.7c.79.64,1.58,1.29,2.37,1.93"/></g><g><path class="cls-2" d="m80.14,241.39c.77-.77,1.55-1.54,2.32-2.31"/><path class="cls-2" d="m83.73,238.86c1.07-.34,2.14-.69,3.21-1.03"/><path class="cls-2" d="m83.51,235.02c-.28.98-.56,1.96-.83,2.94"/></g><g><path class="cls-2" d="m69.72,309.05c-.84.7-1.67,1.4-2.51,2.11"/><path class="cls-2" d="m65.94,311.27c-1.1.25-2.19.5-3.29.75"/><path class="cls-2" d="m65.83,315.12c.36-.95.72-1.91,1.08-2.86"/></g><g><path class="cls-2" d="m50.03,309.23c.81-.74,1.61-1.47,2.42-2.21"/><path class="cls-2" d="m53.72,306.85c1.08-.3,2.17-.59,3.25-.89"/><path class="cls-2" d="m53.67,303c-.32.97-.64,1.94-.96,2.9"/></g><g><path class="cls-2" d="m45.02,302.42c-1.04.34-2.08.67-3.12,1.01"/><path class="cls-2" d="m40.68,303.05c-1.11-.18-2.22-.36-3.33-.54"/><path class="cls-2" d="m39.13,306.58c.69-.75,1.38-1.5,2.07-2.25"/></g><g><path class="cls-2" d="m24.64,288.82c.37,1.03.74,2.06,1.11,3.08"/><path class="cls-2" d="m25.41,293.14c-.14,1.12-.29,2.23-.43,3.35"/><path class="cls-2" d="m28.99,294.58c-.77-.67-1.54-1.33-2.31-2"/></g><g><path class="cls-2" d="m22.79,275.46c-.96.53-1.91,1.06-2.87,1.58"/><path class="cls-2" d="m18.65,276.9c-1.12.04-2.25.07-3.37.11"/><path class="cls-2" d="m17.79,280.66c.54-.87,1.07-1.73,1.61-2.6"/></g><g><path class="cls-2" d="m155.47,270.23c-.66.87-1.33,1.73-1.99,2.6"/><path class="cls-2" d="m152.25,273.22c-1.02.48-2.03.96-3.05,1.45"/><path class="cls-2" d="m152.98,277c.14-1.01.29-2.02.43-3.03"/></g><g><path class="cls-2" d="m186.96,267.86c.71-.83,1.43-1.65,2.14-2.48"/><path class="cls-2" d="m190.34,265.06c1.04-.42,2.08-.85,3.13-1.27"/><path class="cls-2" d="m189.83,261.24c-.2,1-.4,2-.61,3"/></g><g><path class="cls-2" d="m167.81,268.84c.37,1.03.74,2.05,1.11,3.08"/><path class="cls-2" d="m168.59,273.16c-.14,1.12-.29,2.23-.43,3.35"/><path class="cls-2" d="m172.17,274.59c-.77-.67-1.54-1.33-2.31-2"/></g><g><path class="cls-2" d="m128.85,271.72c.6.91,1.21,1.82,1.81,2.73"/><path class="cls-2" d="m130.62,275.73c.12,1.12.25,2.24.37,3.35"/><path class="cls-2" d="m134.44,276.28c-.91-.47-1.81-.93-2.72-1.4"/></g><g><path class="cls-2" d="m101.29,272.81c.66-.87,1.32-1.74,1.98-2.61"/><path class="cls-2" d="m104.49,269.8c1.01-.49,2.03-.98,3.04-1.47"/><path class="cls-2" d="m103.74,266.02c-.14,1.01-.28,2.02-.41,3.03"/></g><g><path class="cls-2" d="m35.28,296.37c.4-1.02.8-2.03,1.21-3.05"/><path class="cls-2" d="m37.56,292.62c.85-.74,1.69-1.48,2.54-2.23"/><path class="cls-2" d="m35.82,289.18c.14,1.01.27,2.02.41,3.03"/></g><g><path class="cls-2" d="m113.72,273.05c1.08-.19,2.15-.37,3.23-.56"/><path class="cls-2" d="m118.11,273.04c1.07.34,2.15.67,3.22,1.01"/><path class="cls-2" d="m120.14,269.76c-.79.64-1.58,1.29-2.37,1.93"/></g></g><g><g><path class="cls-9" d="m108.81,285.73c.8.74,1.61,1.48,2.41,2.22"/><path class="cls-9" d="m111.5,289.2c.39,1.05.78,2.11,1.17,3.16"/><path class="cls-9" d="m115.34,288.81c-.99-.23-1.98-.47-2.98-.7"/></g><g><path class="cls-9" d="m201.87,282.79c-.03-1.09-.06-2.18-.09-3.28"/><path class="cls-9" d="m202.48,278.45c.48-1.02.97-2.03,1.45-3.05"/><path class="cls-9" d="m199.53,275.97c.52.87,1.05,1.75,1.57,2.62"/></g><g><path class="cls-9" d="m210.95,290.88c.74.8,1.48,1.61,2.22,2.41"/><path class="cls-9" d="m213.34,294.56c.3,1.08.6,2.17.91,3.25"/><path class="cls-9" d="m217.2,294.49c-.97-.31-1.94-.63-2.91-.94"/></g><g><path class="cls-9" d="m155.29,287.03c-.58.92-1.17,1.85-1.75,2.77"/><path class="cls-9" d="m152.35,290.29c-.97.57-1.94,1.14-2.91,1.72"/><path class="cls-9" d="m153.42,294c.05-1.02.11-2.03.16-3.05"/></g><g><path class="cls-9" d="m183.39,297.09c.14,1.08.29,2.17.43,3.25"/><path class="cls-9" d="m183.24,301.47c-.38,1.06-.75,2.12-1.13,3.18"/><path class="cls-9" d="m186.43,303.63c-.61-.81-1.22-1.63-1.84-2.44"/></g><g><path class="cls-9" d="m200.43,295.43c-.58.92-1.17,1.85-1.75,2.77"/><path class="cls-9" d="m197.5,298.69c-.97.57-1.94,1.14-2.91,1.72"/><path class="cls-9" d="m198.57,302.4c.05-1.02.11-2.03.16-3.05"/></g><g><path class="cls-9" d="m189.3,291.06c.76-.78,1.53-1.56,2.29-2.34"/><path class="cls-9" d="m192.85,288.48c1.07-.36,2.13-.72,3.2-1.07"/><path class="cls-9" d="m192.58,284.63c-.26.98-.53,1.97-.79,2.95"/></g><g><path class="cls-9" d="m113.83,300.37c-.92.59-1.84,1.17-2.76,1.76"/><path class="cls-9" d="m109.78,302.07c-1.12.11-2.24.21-3.36.32"/><path class="cls-9" d="m109.17,305.88c.48-.9.96-1.8,1.44-2.69"/></g><g><path class="cls-9" d="m92.78,290.16c.71-.83,1.41-1.67,2.12-2.5"/><path class="cls-9" d="m96.14,287.33c1.04-.43,2.08-.86,3.12-1.29"/><path class="cls-9" d="m95.6,283.52c-.19,1-.39,2-.58,3"/></g><g><path class="cls-9" d="m137.09,313.09c-.58.92-1.17,1.85-1.75,2.77"/><path class="cls-9" d="m134.16,316.35c-.97.57-1.94,1.14-2.91,1.72"/><path class="cls-9" d="m135.22,320.06c.05-1.02.11-2.03.16-3.05"/></g><g><path class="cls-9" d="m165.94,306.98c-.15,1.08-.29,2.16-.44,3.25"/><path class="cls-9" d="m164.63,311.17c-.64.92-1.28,1.85-1.93,2.77"/><path class="cls-9" d="m167.14,314.09c-.38-.95-.75-1.89-1.13-2.84"/></g><g><path class="cls-9" d="m165.94,301.3c.58-.92,1.16-1.85,1.75-2.77"/><path class="cls-9" d="m168.86,298.03c.97-.57,1.93-1.15,2.9-1.72"/><path class="cls-9" d="m167.79,294.33c-.05,1.02-.1,2.03-.15,3.05"/></g><g><path class="cls-9" d="m183.24,311.41c-.95-.54-1.9-1.08-2.85-1.62"/><path class="cls-9" d="m179.84,308.63c-.62-.94-1.23-1.88-1.85-2.82"/><path class="cls-9" d="m176.19,309.86c1.02,0,2.04.01,3.06.02"/></g><g><path class="cls-9" d="m181.03,287.56c-1.07-.21-2.14-.43-3.21-.64"/><path class="cls-9" d="m176.93,285.99c-.88-.7-1.76-1.4-2.65-2.09"/><path class="cls-9" d="m173.85,288.32c.97-.32,1.94-.63,2.91-.95"/></g><g><path class="cls-9" d="m88.68,302.08c1.08.14,2.17.28,3.25.42"/><path class="cls-9" d="m92.87,303.37c.93.64,1.85,1.28,2.78,1.91"/><path class="cls-9" d="m95.79,300.85c-.95.38-1.89.76-2.84,1.14"/></g><g><path class="cls-9" d="m117.94,309.26c.38,1.02.76,2.05,1.14,3.07"/><path class="cls-9" d="m118.75,313.57c-.13,1.12-.27,2.23-.4,3.35"/><path class="cls-9" d="m122.34,314.98c-.78-.66-1.55-1.32-2.33-1.98"/></g><g><path class="cls-9" d="m103.22,307.31c-.58.92-1.17,1.85-1.75,2.77"/><path class="cls-9" d="m100.29,310.58c-.97.57-1.94,1.14-2.91,1.72"/><path class="cls-9" d="m101.35,314.28c.05-1.02.11-2.03.16-3.05"/></g><g><path class="cls-9" d="m129.92,287.12c.89.63,1.78,1.27,2.67,1.9"/><path class="cls-9" d="m133.01,290.23c.52,1,1.04,2,1.56,2.99"/><path class="cls-9" d="m136.77,289.37c-1.01-.11-2.03-.22-3.04-.32"/></g><g><path class="cls-9" d="m138.62,302.88c.7-.84,1.4-1.67,2.11-2.51"/><path class="cls-9" d="m141.97,300.04c1.04-.44,2.07-.87,3.11-1.31"/><path class="cls-9" d="m141.41,296.23c-.19,1-.38,2-.57,3"/></g><g><path class="cls-9" d="m129.66,305.61c-.4-1.02-.8-2.03-1.21-3.05"/><path class="cls-9" d="m128.76,301.32c.11-1.12.22-2.24.33-3.36"/><path class="cls-9" d="m125.14,300c.79.64,1.58,1.28,2.37,1.93"/></g><g><path class="cls-9" d="m151.17,313.09c-.16-1.08-.32-2.16-.48-3.24"/><path class="cls-9" d="m151.27,308.71c.36-1.07.72-2.13,1.08-3.2"/><path class="cls-9" d="m148.05,306.59c.62.81,1.25,1.61,1.87,2.42"/></g><g><path class="cls-9" d="m248.66,299.97c-.95-.54-1.9-1.08-2.85-1.62"/><path class="cls-9" d="m245.27,297.19c-.62-.94-1.23-1.88-1.85-2.82"/><path class="cls-9" d="m241.62,298.42c1.02,0,2.04.01,3.06.02"/></g><g><path class="cls-9" d="m253.3,289.64c1.03-.37,2.05-.74,3.08-1.11"/><path class="cls-9" d="m257.61,288.86c1.12.14,2.23.29,3.35.43"/><path class="cls-9" d="m259.05,285.28c-.67.77-1.33,1.54-2,2.31"/></g><g><path class="cls-9" d="m266.53,280.11c.62-.9,1.25-1.79,1.87-2.69"/><path class="cls-9" d="m269.6,276.99c.99-.53,1.99-1.06,2.98-1.58"/><path class="cls-9" d="m268.71,273.24c-.1,1.01-.2,2.03-.3,3.04"/></g><g><path class="cls-9" d="m270.6,254.89c.37,1.03.74,2.05,1.11,3.08"/><path class="cls-9" d="m271.38,259.21c-.14,1.12-.28,2.23-.43,3.35"/><path class="cls-9" d="m274.96,260.64c-.77-.67-1.54-1.33-2.31-2"/></g><g><path class="cls-9" d="m157.38,233.72c-.95-.54-1.9-1.08-2.85-1.62"/><path class="cls-9" d="m153.99,230.94c-.62-.94-1.23-1.88-1.85-2.82"/><path class="cls-9" d="m150.34,232.17c1.02,0,2.04.01,3.06.02"/></g><g><path class="cls-9" d="m163.69,243.29c-.7.84-1.39,1.68-2.09,2.52"/><path class="cls-9" d="m160.36,246.15c-1.03.44-2.07.89-3.1,1.33"/><path class="cls-9" d="m160.95,249.96c.18-1,.36-2,.55-3.01"/></g><g><path class="cls-9" d="m154.58,264.36c.76-.79,1.51-1.58,2.27-2.36"/><path class="cls-9" d="m158.1,261.75c1.06-.37,2.13-.73,3.19-1.1"/><path class="cls-9" d="m157.8,257.9c-.26.99-.51,1.97-.77,2.96"/></g><g><path class="cls-9" d="m151.78,221.91c.92-.59,1.84-1.18,2.75-1.78"/><path class="cls-9" d="m155.81,220.19c1.12-.11,2.24-.22,3.36-.34"/><path class="cls-9" d="m156.41,216.38c-.48.9-.95,1.8-1.43,2.7"/></g><g><path class="cls-9" d="m211.65,232.75c-.95-.54-1.9-1.08-2.85-1.62"/><path class="cls-9" d="m208.25,229.97c-.62-.94-1.23-1.88-1.85-2.82"/><path class="cls-9" d="m204.6,231.2c1.02,0,2.04.01,3.06.02"/></g><g><path class="cls-9" d="m92.73,256.32c-.4-1.02-.8-2.03-1.2-3.05"/><path class="cls-9" d="m91.83,252.03c.11-1.12.22-2.24.33-3.36"/><path class="cls-9" d="m88.21,250.7c.79.64,1.58,1.29,2.37,1.93"/></g><g><path class="cls-9" d="m80.14,241.39c.77-.77,1.55-1.54,2.32-2.31"/><path class="cls-9" d="m83.73,238.86c1.07-.34,2.14-.69,3.21-1.03"/><path class="cls-9" d="m83.51,235.02c-.28.98-.56,1.96-.83,2.94"/></g><g><path class="cls-9" d="m69.72,309.05c-.84.7-1.67,1.4-2.51,2.11"/><path class="cls-9" d="m65.94,311.27c-1.1.25-2.19.5-3.29.75"/><path class="cls-9" d="m65.83,315.12c.36-.95.72-1.91,1.08-2.86"/></g><g><path class="cls-9" d="m50.03,309.23c.81-.74,1.61-1.47,2.42-2.21"/><path class="cls-9" d="m53.72,306.85c1.08-.3,2.17-.59,3.25-.89"/><path class="cls-9" d="m53.67,303c-.32.97-.64,1.94-.96,2.9"/></g><g><path class="cls-9" d="m45.02,302.42c-1.04.34-2.08.67-3.12,1.01"/><path class="cls-9" d="m40.68,303.05c-1.11-.18-2.22-.36-3.33-.54"/><path class="cls-9" d="m39.13,306.58c.69-.75,1.38-1.5,2.07-2.25"/></g><g><path class="cls-9" d="m24.64,288.82c.37,1.03.74,2.06,1.11,3.08"/><path class="cls-9" d="m25.41,293.14c-.14,1.12-.29,2.23-.43,3.35"/><path class="cls-9" d="m28.99,294.58c-.77-.67-1.54-1.33-2.31-2"/></g><g><path class="cls-9" d="m22.79,275.46c-.96.53-1.91,1.06-2.87,1.58"/><path class="cls-9" d="m18.65,276.9c-1.12.04-2.25.07-3.37.11"/><path class="cls-9" d="m17.79,280.66c.54-.87,1.07-1.73,1.61-2.6"/></g><g><path class="cls-9" d="m155.47,270.23c-.66.87-1.33,1.73-1.99,2.6"/><path class="cls-9" d="m152.25,273.22c-1.02.48-2.03.96-3.05,1.45"/><path class="cls-9" d="m152.98,277c.14-1.01.29-2.02.43-3.03"/></g><g><path class="cls-9" d="m186.96,267.86c.71-.83,1.43-1.65,2.14-2.48"/><path class="cls-9" d="m190.34,265.06c1.04-.42,2.08-.85,3.13-1.27"/><path class="cls-9" d="m189.83,261.24c-.2,1-.4,2-.61,3"/></g><g><path class="cls-9" d="m167.81,268.84c.37,1.03.74,2.05,1.11,3.08"/><path class="cls-9" d="m168.59,273.16c-.14,1.12-.29,2.23-.43,3.35"/><path class="cls-9" d="m172.17,274.59c-.77-.67-1.54-1.33-2.31-2"/></g><g><path class="cls-9" d="m128.85,271.72c.6.91,1.21,1.82,1.81,2.73"/><path class="cls-9" d="m130.62,275.73c.12,1.12.25,2.24.37,3.35"/><path class="cls-9" d="m134.44,276.28c-.91-.47-1.81-.93-2.72-1.4"/></g><g><path class="cls-9" d="m101.29,272.81c.66-.87,1.32-1.74,1.98-2.61"/><path class="cls-9" d="m104.49,269.8c1.01-.49,2.03-.98,3.04-1.47"/><path class="cls-9" d="m103.74,266.02c-.14,1.01-.28,2.02-.41,3.03"/></g><g><path class="cls-9" d="m35.28,296.37c.4-1.02.8-2.03,1.21-3.05"/><path class="cls-9" d="m37.56,292.62c.85-.74,1.69-1.48,2.54-2.23"/><path class="cls-9" d="m35.82,289.18c.14,1.01.27,2.02.41,3.03"/></g><g><path class="cls-9" d="m113.72,273.05c1.08-.19,2.15-.37,3.23-.56"/><path class="cls-9" d="m118.11,273.04c1.07.34,2.15.67,3.22,1.01"/><path class="cls-9" d="m120.14,269.76c-.79.64-1.58,1.29-2.37,1.93"/></g></g><g><g><path class="cls-6" d="m108.81,285.73c.8.74,1.61,1.48,2.41,2.22"/><path class="cls-6" d="m111.5,289.2c.39,1.05.78,2.11,1.17,3.16"/><path class="cls-6" d="m115.34,288.81c-.99-.23-1.98-.47-2.98-.7"/></g><g><path class="cls-6" d="m201.87,282.79c-.03-1.09-.06-2.18-.09-3.28"/><path class="cls-6" d="m202.48,278.45c.48-1.02.97-2.03,1.45-3.05"/><path class="cls-6" d="m199.53,275.97c.52.87,1.05,1.75,1.57,2.62"/></g><g><path class="cls-6" d="m210.95,290.88c.74.8,1.48,1.61,2.22,2.41"/><path class="cls-6" d="m213.34,294.56c.3,1.08.6,2.17.91,3.25"/><path class="cls-6" d="m217.2,294.49c-.97-.31-1.94-.63-2.91-.94"/></g><g><path class="cls-6" d="m155.29,287.03c-.58.92-1.17,1.85-1.75,2.77"/><path class="cls-6" d="m152.35,290.29c-.97.57-1.94,1.14-2.91,1.72"/><path class="cls-6" d="m153.42,294c.05-1.02.11-2.03.16-3.05"/></g><g><path class="cls-6" d="m183.39,297.09c.14,1.08.29,2.17.43,3.25"/><path class="cls-6" d="m183.24,301.47c-.38,1.06-.75,2.12-1.13,3.18"/><path class="cls-6" d="m186.43,303.63c-.61-.81-1.22-1.63-1.84-2.44"/></g><g><path class="cls-6" d="m200.43,295.43c-.58.92-1.17,1.85-1.75,2.77"/><path class="cls-6" d="m197.5,298.69c-.97.57-1.94,1.14-2.91,1.72"/><path class="cls-6" d="m198.57,302.4c.05-1.02.11-2.03.16-3.05"/></g><g><path class="cls-6" d="m189.3,291.06c.76-.78,1.53-1.56,2.29-2.34"/><path class="cls-6" d="m192.85,288.48c1.07-.36,2.13-.72,3.2-1.07"/><path class="cls-6" d="m192.58,284.63c-.26.98-.53,1.97-.79,2.95"/></g><g><path class="cls-6" d="m113.83,300.37c-.92.59-1.84,1.17-2.76,1.76"/><path class="cls-6" d="m109.78,302.07c-1.12.11-2.24.21-3.36.32"/><path class="cls-6" d="m109.17,305.88c.48-.9.96-1.8,1.44-2.69"/></g><g><path class="cls-6" d="m92.78,290.16c.71-.83,1.41-1.67,2.12-2.5"/><path class="cls-6" d="m96.14,287.33c1.04-.43,2.08-.86,3.12-1.29"/><path class="cls-6" d="m95.6,283.52c-.19,1-.39,2-.58,3"/></g><g><path class="cls-6" d="m137.09,313.09c-.58.92-1.17,1.85-1.75,2.77"/><path class="cls-6" d="m134.16,316.35c-.97.57-1.94,1.14-2.91,1.72"/><path class="cls-6" d="m135.22,320.06c.05-1.02.11-2.03.16-3.05"/></g><g><path class="cls-6" d="m165.94,306.98c-.15,1.08-.29,2.16-.44,3.25"/><path class="cls-6" d="m164.63,311.17c-.64.92-1.28,1.85-1.93,2.77"/><path class="cls-6" d="m167.14,314.09c-.38-.95-.75-1.89-1.13-2.84"/></g><g><path class="cls-6" d="m165.94,301.3c.58-.92,1.16-1.85,1.75-2.77"/><path class="cls-6" d="m168.86,298.03c.97-.57,1.93-1.15,2.9-1.72"/><path class="cls-6" d="m167.79,294.33c-.05,1.02-.1,2.03-.15,3.05"/></g><g><path class="cls-6" d="m183.24,311.41c-.95-.54-1.9-1.08-2.85-1.62"/><path class="cls-6" d="m179.84,308.63c-.62-.94-1.23-1.88-1.85-2.82"/><path class="cls-6" d="m176.19,309.86c1.02,0,2.04.01,3.06.02"/></g><g><path class="cls-6" d="m181.03,287.56c-1.07-.21-2.14-.43-3.21-.64"/><path class="cls-6" d="m176.93,285.99c-.88-.7-1.76-1.4-2.65-2.09"/><path class="cls-6" d="m173.85,288.32c.97-.32,1.94-.63,2.91-.95"/></g><g><path class="cls-6" d="m88.68,302.08c1.08.14,2.17.28,3.25.42"/><path class="cls-6" d="m92.87,303.37c.93.64,1.85,1.28,2.78,1.91"/><path class="cls-6" d="m95.79,300.85c-.95.38-1.89.76-2.84,1.14"/></g><g><path class="cls-6" d="m117.94,309.26c.38,1.02.76,2.05,1.14,3.07"/><path class="cls-6" d="m118.75,313.57c-.13,1.12-.27,2.23-.4,3.35"/><path class="cls-6" d="m122.34,314.98c-.78-.66-1.55-1.32-2.33-1.98"/></g><g><path class="cls-6" d="m103.22,307.31c-.58.92-1.17,1.85-1.75,2.77"/><path class="cls-6" d="m100.29,310.58c-.97.57-1.94,1.14-2.91,1.72"/><path class="cls-6" d="m101.35,314.28c.05-1.02.11-2.03.16-3.05"/></g><g><path class="cls-6" d="m129.92,287.12c.89.63,1.78,1.27,2.67,1.9"/><path class="cls-6" d="m133.01,290.23c.52,1,1.04,2,1.56,2.99"/><path class="cls-6" d="m136.77,289.37c-1.01-.11-2.03-.22-3.04-.32"/></g><g><path class="cls-6" d="m138.62,302.88c.7-.84,1.4-1.67,2.11-2.51"/><path class="cls-6" d="m141.97,300.04c1.04-.44,2.07-.87,3.11-1.31"/><path class="cls-6" d="m141.41,296.23c-.19,1-.38,2-.57,3"/></g><g><path class="cls-6" d="m129.66,305.61c-.4-1.02-.8-2.03-1.21-3.05"/><path class="cls-6" d="m128.76,301.32c.11-1.12.22-2.24.33-3.36"/><path class="cls-6" d="m125.14,300c.79.64,1.58,1.28,2.37,1.93"/></g><g><path class="cls-6" d="m151.17,313.09c-.16-1.08-.32-2.16-.48-3.24"/><path class="cls-6" d="m151.27,308.71c.36-1.07.72-2.13,1.08-3.2"/><path class="cls-6" d="m148.05,306.59c.62.81,1.25,1.61,1.87,2.42"/></g><g><path class="cls-6" d="m248.66,299.97c-.95-.54-1.9-1.08-2.85-1.62"/><path class="cls-6" d="m245.27,297.19c-.62-.94-1.23-1.88-1.85-2.82"/><path class="cls-6" d="m241.62,298.42c1.02,0,2.04.01,3.06.02"/></g><g><path class="cls-6" d="m253.3,289.64c1.03-.37,2.05-.74,3.08-1.11"/><path class="cls-6" d="m257.61,288.86c1.12.14,2.23.29,3.35.43"/><path class="cls-6" d="m259.05,285.28c-.67.77-1.33,1.54-2,2.31"/></g><g><path class="cls-6" d="m266.53,280.11c.62-.9,1.25-1.79,1.87-2.69"/><path class="cls-6" d="m269.6,276.99c.99-.53,1.99-1.06,2.98-1.58"/><path class="cls-6" d="m268.71,273.24c-.1,1.01-.2,2.03-.3,3.04"/></g><g><path class="cls-6" d="m270.6,254.89c.37,1.03.74,2.05,1.11,3.08"/><path class="cls-6" d="m271.38,259.21c-.14,1.12-.28,2.23-.43,3.35"/><path class="cls-6" d="m274.96,260.64c-.77-.67-1.54-1.33-2.31-2"/></g><g><path class="cls-6" d="m157.38,233.72c-.95-.54-1.9-1.08-2.85-1.62"/><path class="cls-6" d="m153.99,230.94c-.62-.94-1.23-1.88-1.85-2.82"/><path class="cls-6" d="m150.34,232.17c1.02,0,2.04.01,3.06.02"/></g><g><path class="cls-6" d="m163.69,243.29c-.7.84-1.39,1.68-2.09,2.52"/><path class="cls-6" d="m160.36,246.15c-1.03.44-2.07.89-3.1,1.33"/><path class="cls-6" d="m160.95,249.96c.18-1,.36-2,.55-3.01"/></g><g><path class="cls-6" d="m154.58,264.36c.76-.79,1.51-1.58,2.27-2.36"/><path class="cls-6" d="m158.1,261.75c1.06-.37,2.13-.73,3.19-1.1"/><path class="cls-6" d="m157.8,257.9c-.26.99-.51,1.97-.77,2.96"/></g><g><path class="cls-6" d="m151.78,221.91c.92-.59,1.84-1.18,2.75-1.78"/><path class="cls-6" d="m155.81,220.19c1.12-.11,2.24-.22,3.36-.34"/><path class="cls-6" d="m156.41,216.38c-.48.9-.95,1.8-1.43,2.7"/></g><g><path class="cls-6" d="m211.65,232.75c-.95-.54-1.9-1.08-2.85-1.62"/><path class="cls-6" d="m208.25,229.97c-.62-.94-1.23-1.88-1.85-2.82"/><path class="cls-6" d="m204.6,231.2c1.02,0,2.04.01,3.06.02"/></g><g><path class="cls-6" d="m92.73,256.32c-.4-1.02-.8-2.03-1.2-3.05"/><path class="cls-6" d="m91.83,252.03c.11-1.12.22-2.24.33-3.36"/><path class="cls-6" d="m88.21,250.7c.79.64,1.58,1.29,2.37,1.93"/></g><g><path class="cls-6" d="m80.14,241.39c.77-.77,1.55-1.54,2.32-2.31"/><path class="cls-6" d="m83.73,238.86c1.07-.34,2.14-.69,3.21-1.03"/><path class="cls-6" d="m83.51,235.02c-.28.98-.56,1.96-.83,2.94"/></g><g><path class="cls-6" d="m69.72,309.05c-.84.7-1.67,1.4-2.51,2.11"/><path class="cls-6" d="m65.94,311.27c-1.1.25-2.19.5-3.29.75"/><path class="cls-6" d="m65.83,315.12c.36-.95.72-1.91,1.08-2.86"/></g><g><path class="cls-6" d="m50.03,309.23c.81-.74,1.61-1.47,2.42-2.21"/><path class="cls-6" d="m53.72,306.85c1.08-.3,2.17-.59,3.25-.89"/><path class="cls-6" d="m53.67,303c-.32.97-.64,1.94-.96,2.9"/></g><g><path class="cls-6" d="m45.02,302.42c-1.04.34-2.08.67-3.12,1.01"/><path class="cls-6" d="m40.68,303.05c-1.11-.18-2.22-.36-3.33-.54"/><path class="cls-6" d="m39.13,306.58c.69-.75,1.38-1.5,2.07-2.25"/></g><g><path class="cls-6" d="m24.64,288.82c.37,1.03.74,2.06,1.11,3.08"/><path class="cls-6" d="m25.41,293.14c-.14,1.12-.29,2.23-.43,3.35"/><path class="cls-6" d="m28.99,294.58c-.77-.67-1.54-1.33-2.31-2"/></g><g><path class="cls-6" d="m22.79,275.46c-.96.53-1.91,1.06-2.87,1.58"/><path class="cls-6" d="m18.65,276.9c-1.12.04-2.25.07-3.37.11"/><path class="cls-6" d="m17.79,280.66c.54-.87,1.07-1.73,1.61-2.6"/></g><g><path class="cls-6" d="m155.47,270.23c-.66.87-1.33,1.73-1.99,2.6"/><path class="cls-6" d="m152.25,273.22c-1.02.48-2.03.96-3.05,1.45"/><path class="cls-6" d="m152.98,277c.14-1.01.29-2.02.43-3.03"/></g><g><path class="cls-6" d="m186.96,267.86c.71-.83,1.43-1.65,2.14-2.48"/><path class="cls-6" d="m190.34,265.06c1.04-.42,2.08-.85,3.13-1.27"/><path class="cls-6" d="m189.83,261.24c-.2,1-.4,2-.61,3"/></g><g><path class="cls-6" d="m167.81,268.84c.37,1.03.74,2.05,1.11,3.08"/><path class="cls-6" d="m168.59,273.16c-.14,1.12-.29,2.23-.43,3.35"/><path class="cls-6" d="m172.17,274.59c-.77-.67-1.54-1.33-2.31-2"/></g><g><path class="cls-6" d="m128.85,271.72c.6.91,1.21,1.82,1.81,2.73"/><path class="cls-6" d="m130.62,275.73c.12,1.12.25,2.24.37,3.35"/><path class="cls-6" d="m134.44,276.28c-.91-.47-1.81-.93-2.72-1.4"/></g><g><path class="cls-6" d="m101.29,272.81c.66-.87,1.32-1.74,1.98-2.61"/><path class="cls-6" d="m104.49,269.8c1.01-.49,2.03-.98,3.04-1.47"/><path class="cls-6" d="m103.74,266.02c-.14,1.01-.28,2.02-.41,3.03"/></g><g><path class="cls-6" d="m35.28,296.37c.4-1.02.8-2.03,1.21-3.05"/><path class="cls-6" d="m37.56,292.62c.85-.74,1.69-1.48,2.54-2.23"/><path class="cls-6" d="m35.82,289.18c.14,1.01.27,2.02.41,3.03"/></g><g><path class="cls-6" d="m113.72,273.05c1.08-.19,2.15-.37,3.23-.56"/><path class="cls-6" d="m118.11,273.04c1.07.34,2.15.67,3.22,1.01"/><path class="cls-6" d="m120.14,269.76c-.79.64-1.58,1.29-2.37,1.93"/></g></g></g><g><path class="cls-8" d="m163,119.45c2.42-1.45,5.63-3.09,9.58-4.35,4.79-1.54,9.05-2.04,12.23-2.16"/><path class="cls-8" d="m100.71,116.03c2.39-.08,5.19.01,8.27.46,5.12.74,9.32,2.22,12.43,3.6"/><path class="cls-10" d="m136.33,141.77c5.52-3.01,17.07-10.28,25.34-24.44,11.58-19.83,8.76-39.5,7.76-45.07"/><path class="cls-10" d="m169.43,72.26c5.47.61,14.6,2.36,24.28,8.04,12.82,7.51,19.58,17.77,22.46,22.83"/><path class="cls-10" d="m161.38,126.32c.79-.39,1.69-.81,2.68-1.25,6.66-2.94,17.7-6.56,31.29-5.61,3.58.25,6.88.78,9.85,1.45,2.96.69,5.61,1.51,7.88,2.34"/><path class="cls-10" d="m164.21,125.39c-4.06,17.86,3.4,33.49,15.04,37.8,5.82,2.16,12.83,1.52,18.15-1.63,10.64-6.31,15.08-23.03,7.79-39.88"/><path class="cls-10" d="m71.68,127.27c1.33-.56,2.74-1.1,4.23-1.62,2.8-.97,5.87-1.83,9.21-2.47,14.68-2.83,27.2-.11,35.06,2.47.36.12.71.24,1.06.36"/><path class="cls-10" d="m76.15,126.35c-6.02,15.94-1.04,31.99,9.92,38.49,5.93,3.52,13.83,4.34,20.37,1.58,11.9-5.05,18.97-21.93,13.66-40.22"/><path class="cls-10" d="m79.75,126.51c-2.69.85-4.45,3.95-3.66,6.91.76,2.85,3.58,4.48,6.1,3.93,3.15-.68,5.14-4.58,3.91-7.71-.98-2.5-3.79-3.92-6.35-3.13Z"/><path class="cls-10" d="m169.91,133.35c2.51-.25,4.61-2.48,4.42-4.9-.23-2.76-3.34-4.75-6.09-4.04-2.32.61-4.11,3.06-3.49,5.52.56,2.29,2.95,3.63,5.16,3.42Z"/><path class="cls-10" d="m139.32,191.01c2.1,3.21,5.82,4.99,9.59,4.6,5.58-.59,8.03-5.59,8.15-5.85"/><path class="cls-16" d="m224.9,157.07c7.42-1.39,14.85-2.77,22.28-4.16"/><path class="cls-16" d="m246.06,142.93c-6.64.8-13.28,1.6-19.92,2.41"/><path class="cls-10" d="m238.94,107.8c2.69,6.98,5.37,15.37,7.36,25,.7,3.39,1.27,6.67,1.71,9.84.51,3.53.87,6.91,1.12,10.11.2,2.67.34,5.22.41,7.63.02.77.05,1.51.06,2.24"/><path class="cls-10" d="m254.52,180.46c0,1.39-.11,2.84-.33,4.34-1.51,10.51-7.61,17-9.64,19"/><path class="cls-10" d="m252.15,167.8c1.26,3.18,2.43,7.52,2.37,12.66"/><path class="cls-10" d="m249.59,162.64c.54.88,1.58,2.66,2.56,5.15"/><path class="cls-10" d="m216.74,177.96c3.12,5.14,8.22,12.05,16.15,18.35,1.47,1.17,2.93,2.23,4.35,3.18,2.57,1.75,5.04,3.16,7.3,4.31"/><path class="cls-10" d="m238.94,107.8c-.16,4.2-1.03,11.49-5.31,19.12-2.18,3.87-4.66,6.81-6.78,8.94"/><path class="cls-10" d="m226.85,135.86c-.24,3.16-.47,6.32-.71,9.48"/><path class="cls-10" d="m226.14,145.34c-.05,2.67-.26,6.78-1.24,11.72-.54,2.74-1.32,5.74-2.45,8.89-1.35,3.83-3.2,7.89-5.72,11.99-.54.89-1.39,2.21-2.55,3.81-1.59,2.19-3.75,4.88-6.57,7.7-3.55,3.58-8.15,7.37-13.9,10.59-4.68,2.62-10.26,4.69-36.72,7.2-1.49.14-3.04.28-4.67.43-2.65.23-5.49.46-8.52.71-19.01,1.52-29.51,2.36-37.42,1.36-.8-.1-1.57-.21-2.31-.35-11.04-2.03-29.01-5.32-41.43-20.31-10.18-12.28-12.16-26.98-11.89-37.71.18-7.21,1.36-12.63,1.75-14.29"/><path class="cls-10" d="m226.85,135.86c6.48-1.01,12.96-2.04,19.45-3.06"/><path class="cls-10" d="m223.26,166.26c8.56-1.94,17.11-3.89,25.66-5.84"/><path class="cls-10" d="m108.52,93.72c-2.23-5.13-6.56-12.63-14.78-17.46-1.49-.88-2.28-1.3-3.33-1.49-11.53-2.18-25.5,24.9-31.02,38.52-2.73,6.73-6.12,16.9-7.81,30.13"/><path class="cls-10" d="m104.09,209.41c-4.48,5.47-11.15,12.87-20.24,20.54-.51.43-1.01.86-1.53,1.29-2.95,2.42-5.78,4.59-8.53,6.56-5.26,3.77-11.78,8.05-22.07,13.58-8.6,4.62-17.15,8.68-24.56,11.99-1.61.72-3.18,1.41-4.67,2.06-4.49,1.94-8.38,3.54-11.4,4.76"/><path class="cls-10" d="m106.42,209.66s-.01.07-.02.1c-.34,2.05-.7,4.15-1.09,6.28-1.87,10.27-4.4,21.43-7.81,33.26-.81,2.86-1.69,5.76-2.62,8.7-.39,1.24-.79,2.47-1.18,3.7-1.3,3.93-2.63,7.76-3.99,11.46-4.28,11.66-8.87,22.21-13.43,31.61-.99,2.05-1.98,4.06-2.98,6"/><path class="cls-10" d="m193.72,200.05c.39,4.36.85,8.84,1.38,13.4.62,5.33,1.34,10.8,2.16,16.4.18,1.22.37,2.45.56,3.68.42,2.66.85,5.29,1.3,7.87.64,3.78,1.32,7.47,2.03,11.09.83,4.34,1.71,8.58,2.63,12.7,9.59,10.33,19.19,20.65,28.78,30.99"/><path class="cls-10" d="m22.92,266.44c2.16,5.19,8.16,17.59,21.88,27.16,12.82,8.94,25.56,10.62,31.18,11.04"/><path class="cls-10" d="m73.3,310.77c32.87,13.39,59.89,13.41,74.45,12.29,18.28-1.43,33.41-5.99,41.73-8.54,18.13-5.56,32.64-12.54,43.07-18.32"/><path class="cls-10" d="m211.48,215.65c2.45,1.87,5.04,3.75,7.78,5.63.86.59,1.72,1.17,2.6,1.76,2.67,1.76,5.47,3.51,8.4,5.22,8.35,4.88,16.45,8.69,23.93,11.68,4.87,1.95,9.48,3.54,13.75,4.86,3.16.98,6.13,1.79,8.88,2.49"/><path class="cls-10" d="m193.72,200.05c4.75,4.76,10.64,10.13,17.76,15.59"/><path class="cls-10" d="m267.94,244.8c-.08,5.03-.96,19.78-11.69,33.64-6.93,8.95-15.13,13.85-20.55,16.39-1.19.56-2.27,1.01-3.15,1.36"/><path class="cls-10" d="m211.47,215.67c-1.09,2.32-3.09,5.76-6.54,9.04-2.6,2.48-5.21,4.08-7.19,5.08"/><path class="cls-10" d="m83.85,229.95c2.21,2.91,4.46,5.99,6.71,9.24,2.36,3.42,4.53,6.75,6.53,9.98"/><path class="cls-10" d="m89.71,273.16c12.64,4.39,35.99,10.59,65.05,7.1,21.58-2.59,38.35-9.57,49.03-15.06"/><path class="cls-10" d="m73.3,310.77c-.07.64-.38,3.96.7,7.87.78,2.82,2.28,5.94,5.11,8.59,6.56,6.17,15.2,4.99,17.02,4.75,5.05-.69,5.17-2.57,9.5-3.26,3.6-.59,6.18.29,8.52,1.65,3.99,2.31,7.32,6,13.83,6.31,6.74.33,11-3.26,16.41-4.87,2.48-.74,5.2-1.06,8.52-.41,1.22.24,2.86.68,5.57.96.95.1,6.54.63,12.87-.67,3.96-.81,6.82-2.05,9.15-3.4,5.43-3.12,8.08-6.83,15.3-7.16,5.35-.24,6.79,1.69,10.81.6.23-.07.45-.14.7-.21,5.35-1.78,5.25-5.29,11.13-8.05,6.37-3,9.67-.38,13.34-3.17,2.36-1.79,4.75-5.73,3.91-15.47v-.03"/><path class="cls-10" d="m114.16,330.36c-1.01,3.39-2.2,8.76-1.81,15.33.32,5.28.52,8.79,2.89,11.8,5.49,6.99,19.66,7.5,25.33,1.25,2.12-2.34,2.56-5.34,3.45-11.33.07-.45.14-.9.19-1.34.73-5.87.54-10.81.2-14.27"/><path class="cls-10" d="m180.52,328.28c-.54,2.89-1.04,7.19-.41,12.33.14,1.19.35,2.45.63,3.73.59,2.6.95,4.17,2.12,5.76,4.55,6.17,17.43,7.46,23.21,1.62,3.57-3.61,3.52-9.01,3.1-15.84-.05-.6-.08-1.19-.12-1.81-.34-5.17-1.44-9.4-2.42-12.36"/><path class="cls-10" d="m209.18,335.89c-2.05,1.7-7.14,5.43-14.71,6.44-6.63.89-11.87-.76-14.35-1.71"/><path class="cls-10" d="m144.19,346.07c-2.34,1.41-8.31,4.55-16.49,4.32-7.58-.21-13.02-3.22-15.35-4.7"/><path class="cls-10" d="m105.32,216.04c4.32,2.42,11.19,5.6,20.17,7.03,9.45,1.51,17.44.5,22.76-.69.82-.18,1.59-.37,2.29-.55"/><path class="cls-10" d="m152.34,207.65v.03c-.61,4.71-1.21,9.42-1.8,14.15"/><path class="cls-10" d="m156.96,207.21s.03.02.05.05c1.71,1.51,3.43,3.03,5.15,4.55,3.7,3.28,7.41,6.55,11.12,9.83"/><path class="cls-10" d="m195.1,213.46c-7.27,2.73-14.55,5.46-21.82,8.18"/><path class="cls-10" d="m11.09,270.19c.74,6.21,2.69,14.14,7.63,21.94,16.64,26.25,51.72,26.53,55.28,26.5h.01"/><path class="cls-10" d="m231.79,310.29c2-.3,31.97-5.33,42.89-31.59,5.64-13.55,3.43-26.1,2.14-31.42"/><path class="cls-10" d="m73.79,237.79c2.25,3.2,4.68,6.48,7.29,9.82,3.93,5.03,7.87,9.63,11.7,13.82"/><path class="cls-10" d="m199.12,241.4c3.44-1.13,8.94-3.43,14.35-8.18,4.13-3.62,6.78-7.41,8.39-10.18"/><path class="cls-12" d="m148.25,222.38c.65,8.86,1.21,17.9,1.67,27.1.29,5.81.53,11.54.73,17.24h0"/><path class="cls-12" d="m162.16,211.81c-.26,10.25.11,21.76,1.62,34.27.78,6.41,1.77,12.47,2.91,18.14"/><path class="cls-15" d="m143.38,212.95c-1.56-.81-3.46-.06-4.17,1.44-.62,1.32-.2,2.98,1,3.81,1.41.97,3.51.54,4.4-1,.85-1.48.32-3.45-1.23-4.25Z"/><path class="cls-13" d="m175.22,210.43c-1.25-.65-2.78-.05-3.35,1.15-.51,1.07-.17,2.4.8,3.07,1.14.78,2.82.44,3.53-.8.69-1.18.26-2.77-.98-3.42Z"/><path class="cls-12" d="m92.78,261.43c.3.09.6.17.91.26,11.72,3.34,29.65,6.92,51.47,5.49,1.86-.12,3.69-.27,5.48-.46,5.68-.57,11.04-1.44,16.04-2.5,14.78-3.12,26.5-7.9,34.46-11.72"/><path class="cls-10" d="m52.52,137.09c-.34,1.98-.65,4.09-.95,6.34-.32,2.5-.6,5.16-.8,7.96-1.3,16.89-.14,38.73,9.2,61.49,2.56,6.22,5.44,11.85,8.44,16.89"/><path class="cls-10" d="m68.41,229.77c-4.76-2.8-15.37-9.38-26.69-20.2-12.87-12.31-26.66-30.1-33.84-54.05-2.37-7.91-8.58-29.56-3.31-56.56.8-4.09,3.8-18.19,12.81-34.41,12.84-23.12,29.82-35.99,34.98-39.72C83.8,2.2,117.34,2.33,128.18,2.54c15.26.27,48.77.88,76.88,26.33,32.82,29.72,33.83,71.16,33.88,78.93"/><path class="cls-10" d="m205.06,28.87c9.5,7.4,39.44,32.65,48.98,76.72,5.87,27.16,1.48,49.91-1.89,62.19h0"/><path class="cls-10" d="m237.25,199.49c-1.56,3.51-4.09,8.22-8.23,13.01-3.44,3.98-6.94,6.83-9.76,8.78"/><path class="cls-10" d="m214.19,181.77c.94,4.64,1.72,11.32.82,19.22-.69,5.94-2.13,10.9-3.54,14.66h0s-.01.02-.01.02"/><path class="cls-8" d="m68.41,107.74c5.61-2.29,14.06-4.94,24.56-5.38,6.8-.28,12.67.43,17.27,1.34"/><path class="cls-8" d="m177.02,99.87c3.13-.61,7.06-.99,11.52-.57,12.23,1.13,20.73,7.58,24.36,10.74"/><path class="cls-10" d="m41.12,210.2c-.41,2.68-1.15,6.74-2.64,11.51-2.62,8.39-5.49,12.48-7.68,17.65-2.16,5.13-4.34,12.93-3.65,24.01"/><path class="cls-10" d="m254.53,180.46c1.1,4.42,2.33,11.17,1.93,19.38-.35,7-1.66,10.3-2.49,17.65-.6,5.24-.99,12.89.23,22.44"/></g><g id="Layer_6"><path class="cls-11" d="m31.34,86.5c3.14-8.09,13.84-32.66,41-49.33,23.96-14.71,47.29-15.02,56.33-14.67"/></g></g><g id="Layer_4"><g><path class="cls-24" d="m259.43,149.75c3,13.09,3.3,37.93-11.22,51.24-5.06,4.62-13.84,9.58-13.1,16.12.29,2.57,1.81,3.18,2.3,6.32.94,6.08-3.04,14.62-9.21,15.69-6.61,1.15-13.09-6.87-14.38-13.82-1.79-9.57,6.22-17.38,7.47-18.57,1.71-1.6,2.12-1.45,8.15-5.86,5.28-3.86,9.13-6.94,9.56-7.37,7-7.17,14.24-25.13,12.37-43.9-1.56-15.7-8.09-25.32-6.9-25.91,1.33-.65,11.42,10.55,14.96,26.05Z"/><g><path class="cls-10" d="m244.47,123.7c-1.19.59,5.34,10.2,6.9,25.91,1.87,18.77-5.37,36.73-12.37,43.9-.43.43-4.28,3.52-9.56,7.37-6.03,4.41-6.44,4.26-8.15,5.86-1.25,1.18-9.27,9-7.47,18.57,1.3,6.96,7.78,14.97,14.38,13.82,6.17-1.07,10.15-9.62,9.21-15.69-.48-3.15-2.01-3.75-2.3-6.32-.74-6.54,8.04-11.5,13.1-16.12,14.52-13.3,14.22-38.15,11.22-51.24-3.54-15.5-13.63-26.71-14.96-26.05Z"/><path class="cls-7" d="m243.18,120.33c1.58,7.6,3.16,15.21,4.73,22.81"/></g></g><circle class="cls-1" cx="221.91" cy="228.25" r="1.08"/><circle class="cls-1" cx="229.97" cy="228.34" r=".86"/></g><g id="Layer_2"><g><g><path class="cls-21" d="m196.01,15.07c.28-2.93,1.39-6.9,4.9-9.9,6.23-5.31,14.22-2.57,15.25-2.19,6.4,2.31,10.87,8.68,11.43,16.18,1.06.05,2.95.28,5,1.36,1.73.91,2.87,2.05,3.52,2.82.55-.37,8.29-5.33,16.64-1.62,1.06.47,7.92,3.62,9.32,10.9.92,4.75-.77,9.76-4.34,13.47.45,1.75,2.67,10.94-2.74,18.49-4.88,1.17-12.31,2.12-19.12-1.4-9.33-4.83-8.63-13.52-17.82-17.51-8.48-3.67-13.52,1.8-21.81-2.01-6.58-3.03-10.15-9.57-12.16-14.92h0c2.72-8.51,10.1-12.7,11.94-13.68Zm57.05,21.57c1.25-2.41.49-5.48-1.74-6.92-2.55-1.65-6.22-.67-7.64,2.11-1.37,2.7-.16,6.18,2.61,7.35,2.51,1.06,5.52-.11,6.77-2.54Zm-37.68-18.37c1.36-2.57.19-5.7-2.11-6.99-2.78-1.55-6.59-.12-7.6,2.85-.81,2.38.39,5.2,2.75,6.34,2.44,1.18,5.63.33,6.96-2.2Z"/><path class="cls-17" d="m254.98,64.59c-4.23,5.9-10.64,7.34-15.92,8.52-14.7,3.31-27.01-2.46-30.44-4.11-3.9-1.9-15.13-7.53-21.4-20.14-2.31-4.64-5.6-11.34-3.39-19.35.07-.26.15-.51.23-.76h0c2.01,5.35,5.58,11.9,12.16,14.92,8.29,3.81,13.33-1.66,21.81,2.01,9.19,3.99,8.49,12.68,17.82,17.51,6.81,3.52,14.24,2.57,19.12,1.4Z"/><path class="cls-26" d="m251.32,29.71c2.23,1.45,2.99,4.51,1.74,6.92-1.26,2.43-4.26,3.6-6.77,2.54-2.77-1.17-3.98-4.66-2.61-7.35,1.42-2.78,5.09-3.76,7.64-2.11Z"/><path class="cls-26" d="m213.27,11.28c2.31,1.29,3.47,4.41,2.11,6.99-1.34,2.54-4.53,3.38-6.96,2.2-2.36-1.15-3.56-3.96-2.75-6.34,1.01-2.96,4.82-4.4,7.6-2.85Z"/></g><g><path class="cls-14" d="m236.1,23.34c.55-.37,8.29-5.33,16.64-1.62,1.06.47,7.92,3.62,9.32,10.9.92,4.75-.77,9.76-4.34,13.47-1.05,1.09-2.26,2.06-3.62,2.89"/><path class="cls-14" d="m257.72,46.09c.45,1.75,2.67,10.94-2.74,18.49-4.23,5.9-10.64,7.34-15.92,8.52-14.7,3.31-27.01-2.46-30.44-4.11-3.9-1.9-15.13-7.53-21.4-20.14-2.31-4.64-5.6-11.34-3.39-19.35.07-.26.15-.51.23-.76,2.72-8.5,10.1-12.7,11.94-13.68"/><path class="cls-14" d="m227.58,19.16c-.56-7.5-5.03-13.86-11.43-16.18-1.03-.38-9.02-3.12-15.25,2.19-3.51,3-4.62,6.96-4.9,9.9-.22,2.21.03,3.85.06,4.03"/><path class="cls-14" d="m227.58,19.16c1.06.05,2.95.28,5,1.36,1.73.91,2.87,2.05,3.52,2.82"/><path class="cls-14" d="m213.27,11.28c-2.78-1.55-6.59-.12-7.6,2.85-.81,2.38.39,5.2,2.75,6.34,2.44,1.18,5.63.33,6.96-2.2,1.36-2.57.19-5.7-2.11-6.99Z"/><path class="cls-14" d="m251.32,29.71c-2.55-1.65-6.22-.67-7.64,2.11-1.37,2.7-.16,6.18,2.61,7.35,2.51,1.06,5.52-.11,6.77-2.54,1.25-2.41.49-5.48-1.74-6.92Z"/><path class="cls-14" d="m184.08,28.75c2.01,5.35,5.58,11.89,12.16,14.92,8.29,3.81,13.33-1.66,21.81,2.01,9.19,3.99,8.49,12.68,17.82,17.51,6.81,3.52,14.24,2.57,19.12,1.4"/></g></g></g></svg>