<?xml version="1.0" encoding="UTF-8"?><svg id="Layer_1" xmlns="http://www.w3.org/2000/svg" viewBox="0 0 328.77 366.92"><defs><style>.cls-1{stroke:#b6003d;}.cls-1,.cls-2,.cls-3,.cls-4{stroke-width:5px;}.cls-1,.cls-2,.cls-3,.cls-4,.cls-5{fill:none;stroke-miterlimit:10;}.cls-1,.cls-2,.cls-4,.cls-5{stroke-linecap:round;}.cls-6{fill:#6c4500;}.cls-7{fill:#fff;}.cls-8{fill:#ffe6e9;}.cls-9{fill:#b6003d;}.cls-2,.cls-3{stroke:#000;}.cls-10{fill:#e7ebb6;}.cls-11{fill:#747474;}.cls-12{fill:#9f0014;}.cls-4,.cls-5{stroke:#fff;}.cls-5{stroke-width:3px;}</style></defs><g><path class="cls-7" d="m317.45,103.27c-6.04-3.37-12.18-6.75-18.44-10.11-7.28-3.92-14.49-7.71-21.62-11.37l-.06-.02c.29-.84.53-1.73.7-2.67.57-3.15-.26-3.44.39-5.75,1.19-4.24,4.78-5.97,7.54-7.9-2.08,7.81-1.02,10.78.5,11.99,2.92,2.32,7.38-2,12.4.31,4.72,2.16,3.42,7.16,8.53,9.9,4.75,2.54,7.79-.73,11.11,1.79,3.16,2.4,1.29,6.04,3.7,15.68,2.21,8.79,4.62,9.19,3.96,13.43-.96,6.16-6.23,6.3-8.04,13.4-1.57,6.15,1.85,7.88-.09,12.46-1.9,4.49-5.73,3.57-14.21,10.26-5.56,4.39-5.47,6.02-9.32,8.05-5.45,2.86-14.55,3.1-18.88,2.35.03-1.7.12-3.35.27-4.94.08-.97.19-1.91.32-2.84,5.54-.8,12.34-2.77,18.63-7.47,8.94-6.67,12.56-15.66,16.68-25.87,3.25-8.04,4.97-15.22,5.93-20.68Z"/><path class="cls-9" d="m317.45,103.27c-.96,5.46-2.68,12.64-5.93,20.68-4.12,10.21-7.74,19.2-16.68,25.87-6.29,4.7-13.09,6.67-18.63,7.47,1.27-9.45,4.32-16.81,6.54-21.3,3.84-.86,7.36-1.68,8.69-1.87,1.38-.2-19.63-24.92-15.45-25.4,6.85-.8,8.81-1.66,18.51-3.2l-1.79-1.78c-7.09-4.45-13.9-8.81-20.88-13.42l.33-.5c1.83-1.87,3.96-4.55,5.17-8.05l.06.02c7.13,3.66,14.34,7.45,21.62,11.37,6.26,3.36,12.4,6.74,18.44,10.11Z"/><path class="cls-7" d="m297.18,30.46c2.34,6.54-1.28,15.54-5.87,19.28-.72.58-1.99,1.47-2.68,3.19-1.27,3.15,1.13,4.84.78,7.85-.24,2.12-1.68,3.44-3.45,4.67-2.76,1.93-6.35,3.66-7.54,7.9-.65,2.31.18,2.6-.39,5.75-.17.94-.41,1.83-.7,2.67-1.21,3.5-3.34,6.18-5.17,8.05l-.33.5c-1.1-.72-2.2-1.45-3.3-2.18-1.78-1.19-4.77-3.18-8.5-5.72,5.17-6.62,10.7-18.05,15.96-28.98,5.81-12.07,8.64-23.35,10.54-32.1,1.87.63,8.51,3.12,10.65,9.12Z"/><path class="cls-6" d="m292.71,103.74l1.79,1.78c-9.7,1.54-11.66,2.4-18.51,3.2-4.18.48,16.83,25.2,15.45,25.4-1.33.19-4.85,1.01-8.69,1.87-6.16,1.36-13.17,2.82-13.4,1.96l-.13-1.28c-1.25-7.07-8.12-43.43-30.04-68.64l.12-.1c.8.58,1.65,1.18,2.54,1.82,4.87,3.47,11.02,7.78,18.19,12.67,3.73,2.54,6.72,4.53,8.5,5.72,1.1.73,2.2,1.46,3.3,2.18,6.98,4.61,13.79,8.97,20.88,13.42Z"/><path class="cls-7" d="m266.48,303.83c-1.05.5-1.99.91-2.79,1.23-8.51-9.17-17.02-18.33-25.53-27.49-1.94-8.81-3.73-18.18-5.28-28.09-.17-1.09-.34-2.18-.5-3.26l.42-.06c1.76-.89,4.07-2.31,6.38-4.51,3.06-2.91,4.83-5.96,5.8-8.02,4.88,3.75,10.43,7.55,16.67,11.17,12.78,7.43,24.7,11.93,34.13,14.72-.23,4.72-1.46,17.65-11.07,29.79-6.19,7.83-13.38,12.19-18.23,14.52Z"/><path class="cls-9" d="m286.53,21.34c-1.9,8.75-4.73,20.03-10.54,32.1-5.26,10.93-10.79,22.36-15.96,28.98-7.17-4.89-13.32-9.2-18.19-12.67,15.14-8.64,18.62-13.53,17.85-16.46-.69-2.59-4.54-2.93-4.76-5.6-.41-4.91,12.25-8.6,11.49-12.51-.34-1.69-2.84-1.58-3.74-3.36-1.14-2.26.63-7.02,12.79-17.8,5.26,2.92,8.99,5.7,11.06,7.32Z"/><path class="cls-6" d="m278.8,186.59c1.26,2.05,5.54,9.57,4.08,19.66-1.34,9.32-6.75,15.08-8.55,16.85-2.76-1.24-6.52-3.29-10.34-6.64-4.18-3.66-6.83-7.48-8.43-10.21l-1.77-.44c2.12-2.27,3.79-4.91,4.84-8.12.79-2.41,1.13-4.82,1.14-7.15,6.15-1.97,12.29-3.94,18.43-5.92.2.69.4,1.34.6,1.97Z"/><path class="cls-9" d="m278.2,184.62c-6.14,1.98-12.28,3.95-18.43,5.92,0-2.84-.46-5.58-1.17-8.07,6.02-1.5,12.04-3.01,18.06-4.51.44,2.45.98,4.68,1.54,6.66Z"/><path class="cls-9" d="m275.68,169.11c.14,3.19.5,6.16.98,8.85-6.02,1.5-12.04,3.01-18.06,4.51-.95-3.36-2.33-6.28-3.54-8.46,6.88-1.64,13.74-3.27,20.61-4.9h.01Z"/><path class="cls-6" d="m276.21,157.29c-.13.93-.24,1.87-.32,2.84h-.01c-4.81,1.63-9.63,3.26-14.44,4.88,1.46-1.09,2.91-2.44,4.21-4.12,6.76-8.8,4.35-20.22,3.7-22.94.23.86,7.24-.6,13.4-1.96-2.22,4.49-5.27,11.85-6.54,21.3Z"/><path class="cls-9" d="m275.62,165.07c0,.45,0,.9,0,1.35,0,.91.03,1.81.07,2.69h-.01c-6.87,1.63-13.73,3.26-20.61,4.9-.91-1.63-1.72-2.84-2.18-3.51,1.92-2.55,3.83-5.1,5.75-7.66.93.73,1.87,1.45,2.81,2.17,4.81-1.62,9.63-3.25,14.44-4.88h.01c-.15,1.59-.24,3.24-.27,4.94Z"/><path class="cls-6" d="m244.34,164.19c-.25.03-.51.05-.76.07-4.55-3.36-8.15-6.51-10.87-9.08-2.49-2.35-5.18-5.1-7.6-7.76-4.59-5.05-8.16-9.74-7.38-10.62.36-.4,1.54.06,2.47.51-1.94-3.9-3.87-8.07-5.74-12.51-2.71-6.44-4.94-12.61-6.77-18.38-4.83,6.64-9.91,14.55-14.68,23.74-6.16,11.88-10.35,23.09-13.25,32.83-4.56.15-8.23-.59-10.83-1.36-9.16-2.71-15.01-8.75-18.24-12.69-.57-.7-1.07-1.33-1.48-1.86-2.75-3.57-4.56-6.99-5.73-9.64-7.53-13.79-7.19-17.72-9.19-15.9-10.4,9.52-12.58,12.8-12.58,12.8-4.14,6.77-9.6,15.35-17.73,29.59l-1.35,2.36c-9.35,1.33-18.7,2.66-28.05,3.99l-.16-.54c-3.32-3.17-7.81-8.22-11.11-15.45-3.37-7.38-3.65-13-6.77-13.66-4.5-.95-9.12,9.72-11.35,8.76-.74-.31-1.92-2.18,2.29-19.48,1.6-6.56,3.7-15.22,5.99-21.2.19-.49.4-1.02.63-1.59.87-2.09,2.05-4.67,3.59-7.58,2-3.8,4.59-8.19,7.83-12.81,9.73-13.87,25.31-29.9,48.34-39.16,7.19-2.9,14.12-4.73,20.77-5.86,13.88-2.35,26.51-1.59,37.7-.91,8.53.51,25.56,1.54,39.7,7.28,10.93,4.44,19.87,11.58,27.15,19.95,21.92,25.21,28.79,61.57,30.04,68.64l.13,1.28c.65,2.72,3.06,14.14-3.7,22.94-1.3,1.68-2.75,3.03-4.21,4.12-.94-.72-1.88-1.44-2.81-2.17-1.92,2.56-3.83,5.11-5.75,7.66-3.09-1.88-5.89-3.76-8.41-5.59-.04-.24-.08-.47-.13-.71h0Z"/><path class="cls-7" d="m266.48,303.83c.74,8.65-1.38,12.15-3.47,13.74-3.25,2.47-6.18.15-11.83,2.81-5.21,2.45-5.12,5.56-9.87,7.14-.22.07-.42.13-.62.19-3.57.97-4.84-.74-9.59-.53-6.4.29-8.75,3.58-13.57,6.35-2.07,1.2-4.61,2.3-8.12,3.02-5.62,1.15-10.58.68-11.42.59-2.4-.25-3.86-.64-4.94-.85-2.95-.58-5.36-.3-7.56.36-4.8,1.43-8.58,4.61-14.56,4.32-5.78-.28-8.73-3.55-12.27-5.6-2.08-1.2-4.37-1.98-7.56-1.46-3.84.61-3.95,2.28-8.43,2.89-1.62.22-9.28,1.26-15.1-4.21-5.99-5.61-5.26-13.62-5.15-14.6,29.16,11.88,53.13,11.9,66.04,10.9,16.22-1.27,29.64-5.31,37.02-7.58,16.08-4.93,28.95-11.12,38.21-16.25.8-.32,1.74-.73,2.79-1.23Z"/><path class="cls-9" d="m266.42,35.18c.76,3.91-11.9,7.6-11.49,12.51.22,2.67,4.07,3.01,4.76,5.6.77,2.93-2.71,7.82-17.85,16.46-.89-.64-1.74-1.24-2.54-1.82l-.12.1c-7.28-8.37-16.22-15.51-27.15-19.95-14.14-5.74-31.17-6.77-39.7-7.28-1.06-3.57.43-13.53-.64-17.11,5.81-4.79,26.82-20.95,58.21-21.19,20.13-.15,35.6,5.95,45.57,11.52-12.16,10.78-13.93,15.54-12.79,17.8.9,1.78,3.4,1.67,3.74,3.36Z"/><path class="cls-9" d="m238.16,277.57c8.51,9.16,17.02,18.32,25.53,27.49-9.26,5.13-22.13,11.32-38.21,16.25-7.38,2.27-20.8,6.31-37.02,7.58-12.91,1-36.88.98-66.04-10.9.88-1.72,1.76-3.5,2.64-5.32,4.04-8.34,8.11-17.7,11.91-28.04,11.21,3.89,31.93,9.39,57.7,6.3,19.14-2.3,34.02-8.49,43.49-13.36Z"/><path class="cls-8" d="m118.84,171.24c-.36,1.11-5.55,17.66,5.36,30.79,5.51,6.63,15.61,12.97,25.41,10.86,13.05-2.82,23.02-20.95,18.89-41.81v-.18c-16.55.11-33.11.22-49.66.34Zm60.92-8.25c2.9-9.74,7.09-20.95,13.25-32.83,4.77-9.19,9.85-17.1,14.68-23.74,1.83,5.77,4.06,11.94,6.77,18.38,1.87,4.44,3.8,8.61,5.74,12.51-.93-.45-2.11-.91-2.47-.51-.78.88,2.79,5.57,7.38,10.62,2.42,2.66,5.11,5.41,7.6,7.76,2.72,2.57,6.32,5.72,10.87,9.08-12.55,1.17-25.12,2.34-37.67,3.5-4.11,12.68-.93,25.49,7.65,32.49.98.8,9.05,7.19,16.98,4.98,10.21-2.86,17.82-19.3,13.93-40.32,2.52,1.83,5.32,3.71,8.41,5.59.46.67,1.27,1.88,2.18,3.51,1.21,2.18,2.59,5.1,3.54,8.46.71,2.49,1.18,5.23,1.17,8.07-.01,2.33-.35,4.74-1.14,7.15-1.05,3.21-2.72,5.85-4.84,8.12-4.67,4.99-11.52,8.17-18.78,11.54-1.95.91-3.86,1.71-5.77,2.43-9.52,3.59-18.94,5.03-32.61,6.35-1.33.13-2.69.25-4.1.38-2.39.22-4.9.44-7.56.67-15.37,1.34-23.56,2.05-33.17,1.12-.68-.06-1.37-.14-2.07-.22-16.68-1.98-33.08-8.41-41.38-12.45-.16-8.46-3.48-15.33-4.7-17.68-.09-2.85-.18-5.7-.28-8.55-.15-4.94-.31-9.87-.47-14.81-.09-2.77-.18-5.53-.27-8.3l1.35-2.36c8.13-14.24,13.59-22.82,17.73-29.59,0,0,2.18-3.28,12.58-12.8,2-1.82,1.66,2.11,9.19,15.9,1.17,2.65,2.98,6.07,5.73,9.64.41.53.91,1.16,1.48,1.86,3.23,3.94,9.08,9.98,18.24,12.69,2.6.77,6.27,1.51,10.83,1.36Z"/><path class="cls-12" d="m244.47,164.91c3.89,21.02-3.72,37.46-13.93,40.32-7.93,2.21-16-4.18-16.98-4.98-8.58-7-11.76-19.81-7.65-32.49,12.55-1.16,25.12-2.33,37.67-3.5.29.22.59.44.89.65Zm-28.1,16.19c1.61-.64,2.61-2.3,2.56-3.96-.08-2.29-2.18-4.23-4.34-4.08-2.6.17-4.55,3.28-3.58,5.74.78,1.96,3.27,3.13,5.36,2.3Z"/><path class="cls-6" d="m244.34,164.2c.05.24.09.47.13.71-.3-.21-.6-.43-.89-.65.25-.02.51-.04.76-.07h0Z"/><path class="cls-8" d="m229.24,219.78c4.19,4.22,9.41,8.99,15.74,13.85-.97,2.06-2.74,5.11-5.8,8.02-2.31,2.2-4.62,3.62-6.38,4.51l-.42.06c-.73-4.97-1.37-9.82-1.92-14.55-.47-4.05-.87-8.02-1.22-11.89Z"/><path class="cls-11" d="m242.95,340.28c.37,6.06.42,10.85-2.75,14.05-5.13,5.18-16.55,4.03-20.59-1.44-1.04-1.41-1.36-2.8-1.88-5.11-.25-1.14-.44-2.25-.56-3.31,2.2.85,6.85,2.31,12.73,1.52,6.72-.89,11.23-4.2,13.05-5.71Z"/><path class="cls-8" d="m242.84,338.67c.04.55.07,1.08.11,1.61-1.82,1.51-6.33,4.82-13.05,5.71-5.88.79-10.53-.67-12.73-1.52-.56-4.56-.12-8.38.36-10.94,4.82-2.77,7.17-6.06,13.57-6.35,4.75-.21,6.02,1.5,9.59.53.87,2.62,1.85,6.37,2.15,10.96Z"/><path class="cls-9" d="m232.88,249.48c1.55,9.91,3.34,19.28,5.28,28.09-9.47,4.87-24.35,11.06-43.49,13.36-25.77,3.09-46.49-2.41-57.7-6.3,1.59-4.32,3.13-8.8,4.59-13.45.82-2.61,1.6-5.18,2.32-7.72,3.03-10.49,5.27-20.39,6.93-29.5h0c3.83,2.15,9.93,4.97,17.89,6.24,7.03,1.13,13.15.67,17.73-.13-1.74,12.22-3.48,24.43-5.22,36.65,4.44-.12,9.68-.69,15.41-2.22,2.05-.54,3.97-1.16,5.75-1.81.27,2.17.53,4.33.8,6.49,2.58-.21,5.83-.72,9.45-1.87,3.9-1.24,7.04-2.85,9.36-4.25-3.63-11.38-7.26-22.76-10.89-34.13,6.45-2.42,12.91-4.84,19.36-7.26.55,4.73,1.19,9.58,1.92,14.55.16,1.08.33,2.17.5,3.26Z"/><path class="cls-7" d="m230.46,231.67c-6.45,2.42-12.91,4.84-19.36,7.26-4.83-4.27-9.65-8.53-14.47-12.8,13.67-1.32,23.09-2.76,32.61-6.35.35,3.87.75,7.84,1.22,11.89Z"/><path class="cls-10" d="m202.38,272.69c-1.78.65-3.7,1.27-5.75,1.81-5.73,1.53-10.97,2.1-15.41,2.22,1.74-12.22,3.48-24.43,5.22-36.65,1.73-.29,3.24-.64,4.49-.97.53-4.2,1.06-8.39,1.6-12.58h0c1.41-.14,2.77-.26,4.1-.39,4.82,4.27,9.64,8.53,14.47,12.8,3.63,11.37,7.26,22.75,10.89,34.13-2.32,1.4-5.46,3.01-9.36,4.25-3.62,1.15-6.87,1.66-9.45,1.87-.27-2.16-.53-4.32-.8-6.49Z"/><path class="cls-7" d="m218.93,177.14c.05,1.66-.95,3.32-2.56,3.96-2.09.83-4.58-.34-5.36-2.3-.97-2.46.98-5.57,3.58-5.74,2.16-.15,4.26,1.79,4.34,4.08Z"/><path class="cls-7" d="m192.53,226.51h0c-.54,4.2-1.07,8.39-1.6,12.59-1.25.33-2.76.68-4.49.97-4.58.8-10.7,1.26-17.73.13-7.96-1.27-14.06-4.09-17.89-6.24h0c.36-1.92.69-3.81.99-5.66,9.61.93,17.8.22,33.17-1.12,2.66-.23,5.17-.45,7.56-.67Z"/><path class="cls-8" d="m185.49,336.65c.3,3.07.47,7.45-.18,12.66h0c-2.08,1.25-7.37,4.04-14.63,3.83-6.72-.19-11.55-2.86-13.62-4.17-.34-5.83.71-10.59,1.61-13.6,3.54,2.05,6.49,5.32,12.27,5.6,5.98.29,9.76-2.89,14.56-4.32Z"/><path class="cls-11" d="m185.3,349.31h0c-.05.39-.11.79-.17,1.19-.79,5.31-1.18,7.97-3.06,10.05-5.03,5.54-17.6,5.09-22.47-1.11-2.1-2.67-2.28-5.79-2.56-10.47,2.07,1.31,6.9,3.98,13.62,4.17,7.26.21,12.55-2.58,14.63-3.83Z"/><path class="cls-9" d="m171.69,23.69c1.07,3.58-.42,13.54.64,17.11-11.19-.68-23.82-1.44-37.7.91.59-3.87,2-12.99,2.59-16.87l-.02-.21c8.03-.53,27.88-.33,34.49-.94Z"/><path class="cls-12" d="m168.5,171.08c4.13,20.86-5.84,38.99-18.89,41.81-9.8,2.11-19.9-4.23-25.41-10.86-10.91-13.13-5.72-29.68-5.36-30.79,16.55-.12,33.11-.23,49.66-.34v.18Zm-37.53,15.38c1.56-.95,2.38-3.06,1.79-4.98-.64-2.06-2.76-3.39-4.86-3.06-2.53.4-4.14,3.09-3.57,5.36.68,2.72,4.3,4.1,6.64,2.68Z"/><path class="cls-8" d="m149.73,228.08c.7.08,1.39.16,2.07.22-.3,1.85-.63,3.74-.99,5.66-1.66,9.11-3.9,19.01-6.93,29.5l-.36-.11c-1.77-2.86-3.7-5.82-5.79-8.85-1.99-2.89-3.99-5.62-5.95-8.2,8.06-6.8,13.98-13.37,17.95-18.22Z"/><path class="cls-7" d="m143.52,263.35l.36.11c-.72,2.54-1.5,5.11-2.32,7.72-1.46,4.65-3,9.13-4.59,13.45-3.8,10.34-7.87,19.7-11.91,28.04l-.26-.12c-4.99-.37-16.29-1.86-27.66-9.79-12.17-8.49-17.49-19.49-19.41-24.09,10.6-5,19.23-9.71,25.54-13.36,10.57-6.11,18.22-10.53,27.15-17.87.46-.38.91-.76,1.36-1.14,1.96,2.58,3.96,5.31,5.95,8.2,2.09,3.03,4.02,5.99,5.79,8.85Z"/><path class="cls-9" d="m137.2,24.63l.02.21c-.59,3.88-2,13-2.59,16.87-6.65,1.13-13.58,2.96-20.77,5.86-23.03,9.26-38.61,25.29-48.34,39.16.72-5.34.67-11.36-2.85-14.01-3.04-2.3-5.97-.05-8.81-2.17-5.6-4.2.8-16.69-4.47-20.94-3.82-3.09-9.35,1.76-13.53-.89-2.97-1.89-5.29-7.58-1.47-24.96,8.81-5.37,19.49-9.97,32.11-12.32,35.86-6.67,63.14,9.34,69.45,13.28.37-.03.79-.07,1.25-.09Z"/><path class="cls-7" d="m132.76,181.48c.59,1.92-.23,4.03-1.79,4.98-2.34,1.42-5.96.04-6.64-2.68-.57-2.27,1.04-4.96,3.57-5.36,2.1-.33,4.22,1,4.86,3.06Z"/><path class="cls-6" d="m108.35,215.63c.07,3.6-.42,7.48-1.89,11.43-.32.86-6.31,16.41-15.96,16.21-6.25-.13-10.71-6.78-12.77-9.83-4.41-6.57-4.8-13.25-4.97-17.11-.38-8.37,1.99-15.07,3.83-19.02,4.53-.4,9.63-.59,15.19-.38,4.28.16,8.25.53,11.87,1.02,1.22,2.35,4.54,9.22,4.7,17.68Z"/><path class="cls-9" d="m103.37,189.4c.1,2.85.19,5.7.28,8.55-3.62-.49-7.59-.86-11.87-1.02-5.56-.21-10.66-.02-15.19.38.26-1.93.48-4.1.57-6.49,8.73-.48,17.48-.95,26.21-1.42Z"/><path class="cls-9" d="m102.9,174.59c.16,4.94.32,9.87.47,14.81-8.73.47-17.48.94-26.21,1.42.07-1.92.06-3.98-.06-6.15-.05-.82-.11-1.61-.18-2.36-.17-1.95-.41-3.67-.7-5.25,8.84-.82,17.69-1.65,26.54-2.47h.14Z"/><path class="cls-9" d="m102.63,166.29c.09,2.77.18,5.53.27,8.3h-.14c-8.85.82-17.7,1.65-26.54,2.47-.4-2.23-.91-4.19-1.51-6.15l-.13-.63c9.35-1.33,18.7-2.66,28.05-3.99Z"/><path class="cls-7" d="m76.22,177.06c.29,1.58.53,3.3.7,5.25l-2.12.19c-9.61,7.68-14.58,7.96-17.36,6.64-2.33-1.11-2.87-3.22-5.88-3.96-4.36-1.06-6.18,2.68-10.21,2.17-5.31-.66-5.02-7.5-11.23-9.83-6.04-2.28-10.21,2.73-13.92,0-2.6-1.91-1.05-4.74-3.06-12.89-2.39-9.68-5.34-10.88-4.32-15.58,1.19-5.49,5.64-5.06,7-10.85,1.53-6.49-3.38-10.01-.89-14.29,1.99-3.45,5.95-2.53,7.53-6.26,1.28-3.02-.72-5.07-.38-8.04.35-3.19,3.38-7.26,14.85-11.31.31.75.64,1.5,1.06,2.25-4.2,8.08-8.53,17.68-12.34,28.72-4.42,12.81-7.1,24.59-8.76,34.66,4.78,3.19,13.46,8.07,25.36,10.02,14.87,2.44,26.81-1,32.46-3.04.6,1.96,1.11,3.92,1.51,6.15Z"/><path class="cls-9" d="m74.58,170.28l.13.63c-5.65,2.04-17.59,5.48-32.46,3.04-11.9-1.95-20.58-6.83-25.36-10.02,1.66-10.07,4.34-21.85,8.76-34.66,3.81-11.04,8.14-20.64,12.34-28.72.65,1.18,1.5,2.34,2.85,3.44,2.27,1.85,6.18,3.72,13.26,3.13-.23.57-.44,1.1-.63,1.59-2.29,5.98-4.39,14.64-5.99,21.2-4.21,17.3-3.03,19.17-2.29,19.48,2.23.96,6.85-9.71,11.35-8.76,3.12.66,3.4,6.28,6.77,13.66,3.3,7.23,7.79,12.28,11.11,15.45l.16.54Z"/><path class="cls-9" d="m62.67,72.72c3.52,2.65,3.57,8.67,2.85,14.01-3.24,4.62-5.83,9.01-7.83,12.81l-.76-.4c-8.15-6.36-16.94-13.93-25.92-22.85-9.63-9.57-17.7-18.93-24.43-27.55,5.03-6.53,14.19-16.68,27.81-24.98-3.82,17.38-1.5,23.07,1.47,24.96,4.18,2.65,9.71-2.2,13.53.89,5.27,4.25-1.13,16.74,4.47,20.94,2.84,2.12,5.77-.13,8.81,2.17Z"/><path class="cls-7" d="m56.93,99.14l.76.4c-1.54,2.91-2.72,5.49-3.59,7.58-7.08.59-10.99-1.28-13.26-3.13-1.35-1.1-2.2-2.26-2.85-3.44-.42-.75-.75-1.5-1.06-2.25-.96-2.23-1.82-4.44-4.51-6.31-4.99-3.45-8.64-.49-12.13-4.08-3.32-3.42-.86-6.95-4.47-11.24-2.93-3.48-5.84-2.67-8.94-5.36-2.59-2.26-5.15-6.83-4.17-17.17.76-1.15,2.04-3.04,3.87-5.4,6.73,8.62,14.8,17.98,24.43,27.55,8.98,8.92,17.77,16.49,25.92,22.85Z"/></g><g><path class="cls-4" d="m34.39,23.76c-3.82,17.38-1.5,23.07,1.47,24.96,4.18,2.65,9.71-2.2,13.53.89,5.27,4.25-1.13,16.74,4.47,20.94,2.84,2.12,5.77-.13,8.81,2.17,3.52,2.65,3.57,8.67,2.85,14.01v.02"/><path class="cls-4" d="m275.48,14.01h-.01c-12.16,10.79-13.93,15.55-12.79,17.81.9,1.78,3.4,1.67,3.74,3.36.76,3.91-11.9,7.6-11.49,12.51.22,2.67,4.07,3.01,4.76,5.6.77,2.93-2.71,7.82-17.85,16.46"/><path class="cls-3" d="m135.95,24.72c-6.31-3.94-33.59-19.95-69.45-13.28-12.62,2.35-23.3,6.95-32.11,12.32-13.62,8.3-22.78,18.45-27.81,24.98-1.83,2.36-3.11,4.25-3.87,5.4-.11.17-.2.32-.29.45"/><path class="cls-3" d="m260.03,82.42c5.17-6.62,10.7-18.05,15.96-28.98,5.81-12.07,8.64-23.35,10.54-32.1-2.07-1.62-5.8-4.4-11.06-7.32-9.97-5.57-25.44-11.67-45.57-11.52-31.39.24-52.4,16.4-58.21,21.19"/><path class="cls-2" d="m210.76,147.65c4.78-.08,9.57-.16,14.35-.23l8.88-.15"/><path class="cls-2" d="m137.35,149.57c4.45-.21,8.89-.42,13.34-.63,3.72-.17,7.45-.35,11.17-.52"/><path class="cls-2" d="m137.22,24.84c-.59,3.88-2,13-2.59,16.87"/><path class="cls-2" d="m171.69,23.69c1.07,3.58-.42,13.54.64,17.11"/><path class="cls-2" d="m135.95,24.72c.37-.03.79-.07,1.25-.09,8.03-.53,27.88-.33,34.49-.94"/><path class="cls-2" d="m178.33,168.08c.44-1.65.91-3.34,1.43-5.09,2.9-9.74,7.09-20.95,13.25-32.83,4.77-9.19,9.85-17.1,14.68-23.74"/><path class="cls-2" d="m207.69,106.42c1.83,5.77,4.06,11.94,6.77,18.38,1.87,4.44,3.8,8.61,5.74,12.51"/><path class="cls-2" d="m202.46,168.08c1.15-.11,2.3-.21,3.45-.32,12.55-1.16,25.12-2.33,37.67-3.5.25-.02.51-.04.76-.07,1.05-.09,2.11-.19,3.16-.29"/><path class="cls-2" d="m205.91,167.76c-4.11,12.68-.93,25.49,7.65,32.49.98.8,9.05,7.19,16.98,4.98,10.21-2.86,17.82-19.3,13.93-40.32-.04-.24-.08-.47-.13-.71"/><path class="cls-2" d="m114.88,171.27l3.96-.03c16.55-.12,33.11-.23,49.66-.34.43,0,.85-.01,1.28-.01"/><path class="cls-2" d="m118.84,171.24c-.36,1.11-5.55,17.66,5.36,30.79,5.51,6.63,15.61,12.97,25.41,10.86,13.05-2.82,23.02-20.95,18.89-41.81"/><path class="cls-2" d="m127.9,178.42c-2.53.4-4.14,3.09-3.57,5.36.68,2.72,4.3,4.1,6.64,2.68,1.56-.95,2.38-3.06,1.79-4.98-.64-2.06-2.76-3.39-4.86-3.06Z"/><path class="cls-2" d="m216.37,181.1c1.61-.64,2.61-2.3,2.56-3.96-.08-2.29-2.18-4.23-4.34-4.08-2.6.17-4.55,3.28-3.58,5.74.78,1.96,3.27,3.13,5.36,2.3Z"/><path class="cls-2" d="m184.08,212.76c3.44-.26,6.89-.51,10.34-.77"/><path class="cls-2" d="m286.53,21.34c1.87.63,8.51,3.12,10.65,9.12,2.34,6.54-1.28,15.54-5.87,19.28-.72.58-1.99,1.47-2.68,3.19-1.27,3.15,1.13,4.84.78,7.85-.24,2.12-1.68,3.44-3.45,4.67-2.76,1.93-6.35,3.66-7.54,7.9-.65,2.31.18,2.6-.39,5.75-.17.94-.41,1.83-.7,2.67-1.21,3.5-3.34,6.18-5.17,8.05"/><path class="cls-5" d="m258.6,182.47c6.02-1.5,12.04-3.01,18.06-4.51"/><path class="cls-5" d="m275.67,169.11c-6.87,1.63-13.73,3.26-20.61,4.9h0"/><path class="cls-5" d="m76.19,177.06h.03c8.84-.82,17.69-1.65,26.54-2.47"/><path class="cls-5" d="m103.39,189.4h-.02c-8.73.47-17.48.94-26.21,1.42"/><path class="cls-2" d="m285.96,65.45c-2.08,7.81-1.02,10.78.5,11.99,2.92,2.32,7.38-2,12.4.31,4.72,2.16,3.42,7.16,8.53,9.9,4.75,2.54,7.79-.73,11.11,1.79,3.16,2.4,1.29,6.04,3.7,15.68,2.21,8.79,4.62,9.19,3.96,13.43-.96,6.16-6.23,6.3-8.04,13.4-1.57,6.15,1.85,7.88-.09,12.46-1.9,4.49-5.73,3.57-14.21,10.26-5.56,4.39-5.47,6.02-9.32,8.05-5.45,2.86-14.55,3.1-18.88,2.35-.05,0-.09,0-.14-.02"/><path class="cls-2" d="m282.75,135.99c-2.22,4.49-5.27,11.85-6.54,21.3-.13.93-.24,1.87-.32,2.84-.15,1.59-.24,3.24-.27,4.94,0,.45,0,.9,0,1.35,0,.91.03,1.81.07,2.69.14,3.19.5,6.16.98,8.85.44,2.45.98,4.68,1.54,6.66.2.69.4,1.34.6,1.97"/><path class="cls-2" d="m278.8,186.59c1.26,2.05,5.54,9.57,4.08,19.66-1.34,9.32-6.75,15.08-8.55,16.85"/><path class="cls-2" d="m255.56,206.25c1.6,2.73,4.25,6.55,8.43,10.21,3.82,3.35,7.58,5.4,10.34,6.64"/><path class="cls-2" d="m269.35,137.95c.65,2.72,3.06,14.14-3.7,22.94-1.3,1.68-2.75,3.03-4.21,4.12"/><path class="cls-2" d="m258.63,162.84c.93.73,1.87,1.45,2.81,2.17"/><path class="cls-2" d="m258.63,162.84c-1.92,2.56-3.83,5.11-5.75,7.66"/><path class="cls-2" d="m252.88,170.5c.46.67,1.27,1.88,2.18,3.51,1.21,2.18,2.59,5.1,3.54,8.46.71,2.49,1.18,5.23,1.17,8.07-.01,2.33-.35,4.74-1.14,7.15-1.05,3.21-2.72,5.85-4.84,8.12-4.67,4.99-11.52,8.17-18.78,11.54-1.95.91-3.86,1.71-5.77,2.43-9.52,3.59-18.94,5.03-32.61,6.35-1.33.13-2.69.25-4.1.38-2.39.22-4.9.44-7.56.67-15.37,1.34-23.56,2.05-33.17,1.12-.68-.06-1.37-.14-2.07-.22-16.68-1.98-33.08-8.41-41.38-12.45"/><path class="cls-2" d="m277.39,81.79c7.13,3.66,14.34,7.45,21.62,11.37,6.26,3.36,12.4,6.74,18.44,10.11,0,0,.02,0,.03.02"/><path class="cls-2" d="m317.48,103.1c-.01.06-.02.11-.03.17-.96,5.46-2.68,12.64-5.93,20.68-4.12,10.21-7.74,19.2-16.68,25.87-6.29,4.7-13.09,6.67-18.63,7.47h0"/><path class="cls-2" d="m6.57,48.73h.01c6.73,8.63,14.8,17.99,24.43,27.56,8.98,8.92,17.77,16.49,25.92,22.85"/><path class="cls-2" d="m2.71,54.14c-.98,10.34,1.58,14.91,4.17,17.17,3.1,2.69,6.01,1.88,8.94,5.36,3.61,4.29,1.15,7.82,4.47,11.24,3.49,3.59,7.14.63,12.13,4.08,2.69,1.87,3.55,4.08,4.51,6.31.31.75.64,1.5,1.06,2.25.65,1.18,1.5,2.34,2.85,3.44,2.27,1.85,6.18,3.72,13.26,3.13"/><path class="cls-2" d="m36.93,98.3c-11.47,4.05-14.5,8.12-14.85,11.31-.34,2.97,1.66,5.02.38,8.04-1.58,3.73-5.54,2.81-7.53,6.26-2.49,4.28,2.42,7.8.89,14.29-1.36,5.79-5.81,5.36-7,10.85-1.02,4.7,1.93,5.9,4.32,15.58,2.01,8.15.46,10.98,3.06,12.89,3.71,2.73,7.88-2.28,13.92,0,6.21,2.33,5.92,9.17,11.23,9.83,4.03.51,5.85-3.23,10.21-2.17,3.01.74,3.55,2.85,5.88,3.96,2.78,1.32,7.75,1.04,17.36-6.64"/><path class="cls-2" d="m37.99,100.55c-4.2,8.08-8.53,17.68-12.34,28.72-4.42,12.81-7.1,24.59-8.76,34.66"/><path class="cls-2" d="m74.71,170.91c-5.65,2.04-17.59,5.48-32.46,3.04-11.9-1.95-20.58-6.83-25.36-10.02"/><path class="cls-2" d="m74.71,170.91c.6,1.96,1.11,3.92,1.51,6.15.29,1.58.53,3.3.7,5.25.07.75.13,1.54.18,2.36.12,2.17.13,4.23.06,6.15-.09,2.39-.31,4.56-.57,6.49"/><path class="cls-2" d="m261.44,165.01c4.81-1.62,9.63-3.25,14.44-4.88"/><path class="cls-2" d="m259.76,190.54h.01c6.15-1.97,12.29-3.94,18.43-5.92"/><path class="cls-2" d="m102.63,166.29c.09,2.77.18,5.53.27,8.3.16,4.94.32,9.87.47,14.81.1,2.85.19,5.7.28,8.55"/><path class="cls-2" d="m143.48,137.44c-7.53-13.79-7.19-17.72-9.19-15.9-10.4,9.52-12.58,12.8-12.58,12.8-4.14,6.77-9.6,15.35-17.73,29.59l-1.35,2.36c-9.35,1.33-18.7,2.66-28.05,3.99l-.16-.54c-3.32-3.17-7.81-8.22-11.11-15.45-3.37-7.38-3.65-13-6.77-13.66-4.5-.95-9.12,9.72-11.35,8.76-.74-.31-1.92-2.18,2.29-19.48,1.6-6.56,3.7-15.22,5.99-21.2.19-.49.4-1.02.63-1.59.87-2.09,2.05-4.67,3.59-7.58,2-3.8,4.59-8.19,7.83-12.81,9.73-13.87,25.31-29.9,48.34-39.16,7.19-2.9,14.12-4.73,20.77-5.86,13.88-2.35,26.51-1.59,37.7-.91,8.53.51,25.56,1.54,39.7,7.28,10.93,4.44,19.87,11.58,27.15,19.95,21.92,25.21,28.79,61.57,30.04,68.64l.13,1.28c.23.86,7.24-.6,13.4-1.96,3.84-.86,7.36-1.68,8.69-1.87,1.38-.2-19.63-24.92-15.45-25.4,6.85-.8,8.81-1.66,18.51-3.2l-1.79-1.78c-7.09-4.45-13.9-8.81-20.88-13.42-1.1-.72-2.2-1.45-3.3-2.18-1.78-1.19-4.77-3.18-8.5-5.72-7.17-4.89-13.32-9.2-18.19-12.67-.89-.64-1.74-1.24-2.54-1.82"/><path class="cls-2" d="m76.59,197.31c-1.84,3.95-4.21,10.65-3.83,19.02.17,3.86.56,10.54,4.97,17.11,2.06,3.05,6.52,9.7,12.77,9.83,9.65.2,15.64-15.35,15.96-16.21,1.47-3.95,1.96-7.83,1.89-11.43-.16-8.46-3.48-15.33-4.7-17.68"/><path class="cls-2" d="m76.59,197.31c4.53-.4,9.63-.59,15.19-.38,4.28.16,8.25.53,11.87,1.02"/><path class="cls-2" d="m149.73,228.08c-3.97,4.85-9.89,11.42-17.95,18.22-.45.38-.9.76-1.36,1.14-8.93,7.34-16.58,11.76-27.15,17.87-6.31,3.65-14.94,8.36-25.54,13.36"/><path class="cls-2" d="m151.8,228.3c-.3,1.85-.63,3.74-.99,5.66-1.66,9.11-3.9,19.01-6.93,29.5-.72,2.54-1.5,5.11-2.32,7.72-1.46,4.65-3,9.13-4.59,13.45-3.8,10.34-7.87,19.7-11.91,28.04-.88,1.82-1.76,3.6-2.64,5.32"/><path class="cls-2" d="m229.24,219.78c.35,3.87.75,7.84,1.22,11.89.55,4.73,1.19,9.58,1.92,14.55.16,1.08.33,2.17.5,3.26,1.55,9.91,3.34,19.28,5.28,28.09,8.51,9.16,17.02,18.32,25.53,27.49"/><path class="cls-2" d="m77.73,278.67c1.92,4.6,7.24,15.6,19.41,24.09,11.37,7.93,22.67,9.42,27.66,9.79"/><path class="cls-2" d="m122.42,317.99c29.16,11.88,53.13,11.9,66.04,10.9,16.22-1.27,29.64-5.31,37.02-7.58,16.08-4.93,28.95-11.12,38.21-16.25"/><path class="cls-2" d="m229.24,219.78c4.19,4.22,9.41,8.99,15.74,13.85,4.88,3.75,10.43,7.55,16.67,11.17,12.78,7.43,24.7,11.93,34.13,14.72"/><path class="cls-2" d="m295.78,259.52c-.23,4.72-1.46,17.65-11.07,29.79-6.19,7.83-13.38,12.19-18.23,14.52-1.05.5-1.99.91-2.79,1.23"/><path class="cls-2" d="m244.98,233.63c-.97,2.06-2.74,5.11-5.8,8.02-2.31,2.2-4.62,3.62-6.38,4.51"/><path class="cls-2" d="m131.78,246.3c1.96,2.58,3.96,5.31,5.95,8.2,2.09,3.03,4.02,5.99,5.79,8.85"/><path class="cls-1" d="m88.46,280.46c.62,1.41,1.42,2.97,2.47,4.6,1.75,2.73,3.64,4.83,5.27,6.38"/><path class="cls-1" d="m103.35,294.76c1.08,1.3,2.87,3.16,5.53,4.76,2.63,1.59,5.08,2.3,6.73,2.64"/><path class="cls-1" d="m289.22,263.69c-.35,1.27-1.01,3.06-2.29,4.94-1.67,2.43-3.61,3.89-4.85,4.68"/><path class="cls-1" d="m278.08,280.29c-.72,1.58-2.02,3.95-4.35,6.21-3.2,3.12-6.67,4.41-8.51,4.94"/><path class="cls-2" d="m136.97,284.63c11.21,3.89,31.93,9.39,57.7,6.3,19.14-2.3,34.02-8.49,43.49-13.36"/><path class="cls-4" d="m136.12,313.48c1.36.61,3.07,1.24,5.1,1.7,2.23.51,4.21.67,5.79.68"/><path class="cls-4" d="m159.35,318.25c1.65.8,3.86,1.67,6.55,2.21,3.98.79,7.38.53,9.62.17"/><path class="cls-4" d="m191.35,320.2c2.72.46,6.78.8,11.58,0,4.07-.67,7.33-1.95,9.61-3.06"/><path class="cls-4" d="m224.46,313.48c1.78-.47,3.56-.95,5.36-1.45,1.34-.36,2.67-.73,4-1.1"/><path class="cls-4" d="m241.56,307.69c1.68-.53,3.59-1.27,5.62-2.29,1.55-.78,2.91-1.6,4.09-2.39"/><path class="cls-2" d="m122.42,317.99c-.11.98-.84,8.99,5.15,14.6,5.82,5.47,13.48,4.43,15.1,4.21,4.48-.61,4.59-2.28,8.43-2.89,3.19-.52,5.48.26,7.56,1.46,3.54,2.05,6.49,5.32,12.27,5.6,5.98.29,9.76-2.89,14.56-4.32,2.2-.66,4.61-.94,7.56-.36,1.08.21,2.54.6,4.94.85.84.09,5.8.56,11.42-.59,3.51-.72,6.05-1.82,8.12-3.02,4.82-2.77,7.17-6.06,13.57-6.35,4.75-.21,6.02,1.5,9.59.53.2-.06.4-.12.62-.19,4.75-1.58,4.66-4.69,9.87-7.14,5.65-2.66,8.58-.34,11.83-2.81,2.09-1.59,4.21-5.09,3.47-13.74h0"/><path class="cls-2" d="m158.66,335.37c-.9,3.01-1.95,7.77-1.61,13.6.28,4.68.46,7.8,2.56,10.47,4.87,6.2,17.44,6.65,22.47,1.11,1.88-2.08,2.27-4.74,3.06-10.05.06-.4.12-.8.17-1.19.65-5.21.48-9.59.18-12.66"/><path class="cls-2" d="m217.53,333.53c-.48,2.56-.92,6.38-.36,10.94.12,1.06.31,2.17.56,3.31.52,2.31.84,3.7,1.88,5.11,4.04,5.47,15.46,6.62,20.59,1.44,3.17-3.2,3.12-7.99,2.75-14.05-.04-.53-.07-1.06-.11-1.61-.3-4.59-1.28-8.34-2.15-10.96"/><path class="cls-2" d="m242.95,340.28c-1.82,1.51-6.33,4.82-13.05,5.71-5.88.79-10.53-.67-12.73-1.52"/><path class="cls-2" d="m185.3,349.31c-2.08,1.25-7.37,4.04-14.63,3.83-6.72-.19-11.55-2.86-13.62-4.17"/><path class="cls-2" d="m186.44,240.07c-1.74,12.22-3.48,24.43-5.22,36.65"/><path class="cls-2" d="m202.38,272.69c-1.78.65-3.7,1.27-5.75,1.81-5.73,1.53-10.97,2.1-15.41,2.22"/><path class="cls-2" d="m199.18,246.76c1.06,8.65,2.13,17.29,3.2,25.93.27,2.17.53,4.33.8,6.49"/><path class="cls-2" d="m221.99,273.06c-2.32,1.4-5.46,3.01-9.36,4.25-3.62,1.15-6.87,1.66-9.45,1.87"/><path class="cls-2" d="m211.1,238.93c3.63,11.37,7.26,22.75,10.89,34.13"/><path class="cls-2" d="m150.82,233.96c3.83,2.15,9.93,4.97,17.89,6.24,7.03,1.13,13.15.67,17.73-.13,1.73-.29,3.24-.64,4.49-.97"/><path class="cls-2" d="m192.53,226.52c-.54,4.19-1.07,8.38-1.6,12.58"/><path class="cls-2" d="m196.63,226.13c4.82,4.27,9.64,8.53,14.47,12.8"/><path class="cls-2" d="m230.46,231.67c-6.45,2.42-12.91,4.84-19.36,7.26"/></g></svg>