<?xml version="1.0" standalone="no"?>
<!DOCTYPE svg PUBLIC "-//W3C//DTD SVG 20010904//EN"
 "http://www.w3.org/TR/2001/REC-SVG-20010904/DTD/svg10.dtd">
<svg version="1.0" xmlns="http://www.w3.org/2000/svg"
 width="734.000000pt" height="734.000000pt" viewBox="0 0 734.000000 734.000000"
 preserveAspectRatio="xMidYMid meet">
<metadata>
Created by potrace 1.14, written by Peter Selinger 2001-2017
</metadata>
<g transform="translate(0.000000,734.000000) scale(0.100000,-0.100000)"
fill="#000000" stroke="none">
<path d="M4828 7336 c-3 -3 -48 -10 -143 -22 -22 -3 -83 -16 -135 -30 -52 -13
-104 -26 -115 -29 -11 -2 -49 -16 -84 -30 -36 -14 -71 -25 -78 -25 -7 0 -13
-4 -13 -10 0 -6 -3 -9 -7 -8 -10 2 -43 -10 -63 -23 -8 -5 -30 -15 -48 -24 -47
-21 -225 -125 -237 -139 -5 -6 -34 -27 -63 -47 -53 -37 -53 -37 -170 -39 -390
-7 -500 -9 -530 -13 -18 -3 -35 -1 -38 4 -12 19 -303 156 -320 150 -4 -2 -10
1 -13 7 -9 14 -245 85 -319 97 -15 2 -40 6 -57 10 -32 7 -88 13 -175 21 -64 5
-291 5 -335 0 -16 -2 -52 -7 -80 -10 -86 -11 -212 -36 -254 -51 -23 -8 -43
-14 -46 -15 -3 0 -7 -1 -10 -1 -3 -1 -8 -2 -12 -3 -29 -7 -120 -40 -128 -47
-5 -5 -15 -9 -22 -9 -19 0 -196 -86 -271 -132 -34 -21 -65 -38 -68 -38 -3 0
-11 -6 -18 -12 -8 -7 -24 -20 -36 -28 -150 -99 -330 -270 -458 -435 -34 -44
-66 -85 -71 -91 -31 -39 -41 -153 -22 -251 24 -121 76 -187 187 -239 82 -38
109 -71 120 -149 3 -28 13 -63 21 -80 29 -58 103 -105 167 -105 52 0 105 -20
136 -50 17 -16 30 -31 30 -33 0 -2 -35 -21 -77 -42 -86 -43 -156 -102 -183
-155 -14 -27 -17 -50 -13 -95 8 -101 7 -119 -12 -130 -90 -53 -124 -81 -137
-114 -18 -45 -13 -109 12 -176 13 -33 13 -96 1 -128 -5 -13 -32 -48 -60 -77
-83 -87 -98 -171 -47 -281 43 -97 72 -200 82 -302 10 -102 19 -127 55 -155 31
-25 96 -33 154 -18 111 28 169 11 219 -62 85 -128 164 -157 275 -103 61 29 76
27 136 -19 69 -53 115 -65 190 -48 47 11 144 59 190 94 17 13 34 21 37 19 6
-6 1 -141 -6 -185 -3 -14 -16 -57 -30 -96 -39 -111 -50 -184 -48 -318 3 -192
65 -347 194 -487 94 -101 223 -130 328 -73 120 65 255 276 276 431 7 57 12 67
27 55 13 -9 210 -84 272 -102 22 -7 47 -16 55 -19 13 -7 261 -67 317 -77 l23
-4 -28 -31 c-46 -53 -164 -168 -216 -212 -27 -23 -57 -49 -65 -58 -9 -8 -34
-28 -56 -44 -22 -16 -44 -34 -50 -40 -14 -14 -193 -132 -289 -190 -151 -90
-372 -211 -527 -288 -111 -55 -158 -84 -162 -98 -3 -12 13 -55 42 -113 160
-313 464 -544 804 -608 70 -13 75 -18 53 -56 -11 -21 -10 -69 6 -167 7 -41 60
-136 99 -175 112 -113 299 -144 452 -75 28 13 63 24 77 25 47 4 81 0 76 -8
-19 -31 -26 -265 -11 -361 14 -93 70 -162 170 -207 51 -24 73 -28 150 -28 50
0 99 2 110 5 96 26 171 93 192 170 28 103 35 161 43 376 0 13 47 11 160 -5
105 -15 236 -7 318 19 18 6 35 9 36 7 2 -1 6 -39 10 -83 3 -44 7 -87 9 -95 22
-99 41 -142 84 -182 88 -84 280 -108 389 -48 48 26 100 79 115 117 32 82 30
283 -5 441 -5 19 -4 32 2 32 6 0 32 21 59 46 85 81 108 92 213 104 52 6 104
17 115 24 69 46 105 122 110 233 1 37 7 69 12 70 38 13 180 120 249 187 183
180 289 403 319 668 10 90 10 91 -132 138 -70 23 -175 62 -233 87 -119 51
-353 171 -358 184 -2 5 -8 9 -14 9 -31 0 -380 255 -488 357 -19 18 -38 33 -42
33 -5 0 -8 9 -8 20 0 11 5 20 11 20 37 0 305 148 365 202 21 19 21 18 65 -39
76 -101 157 -171 274 -238 83 -47 95 -47 136 -6 50 51 151 211 133 211 -4 0
-2 6 4 13 29 34 47 248 28 337 -10 48 -30 107 -58 167 -33 68 -35 75 -42 125
-3 15 -7 31 -9 35 -16 26 -36 233 -22 233 60 1 184 10 200 14 11 3 36 9 56 14
66 17 127 54 196 121 62 61 193 161 210 161 13 0 127 73 141 89 28 34 50 99
46 137 -16 156 -16 159 4 204 11 25 38 63 60 86 61 62 85 110 88 179 2 38 -2
68 -11 81 -41 63 -86 240 -100 394 -5 61 -13 79 -50 117 -29 29 -94 53 -120
44 -22 -8 -87 -3 -115 9 -26 11 -89 94 -90 118 -1 15 -49 61 -81 78 -36 19
-107 22 -196 10 -50 -7 -52 -7 -59 18 -5 23 -2 83 8 126 1 8 10 22 18 30 61
59 73 107 49 200 -13 49 -12 52 12 74 98 93 151 187 165 294 23 166 -40 279
-201 359 -38 20 -72 38 -75 42 -10 12 -69 51 -79 51 -5 0 -11 4 -13 8 -11 26
-288 165 -393 196 -5 2 -17 6 -25 9 -38 14 -87 29 -110 33 -14 3 -50 11 -80
19 -30 8 -70 15 -88 17 -17 1 -32 5 -32 8 0 3 -19 6 -43 7 -85 5 -415 12 -419
9z"/>
</g>
</svg>
